<svg height="100%" viewBox="0 0 1000 1200" width="100%" xmlns="http://www.w3.org/2000/svg">
<text fill="black" font-family="Arial" font-size="30" text-anchor="middle" x="500" y="40">
Property DAG
</text>
<line stroke="black" x1="454.5454545454545" x2="909.090909090909" y1="900" y2="1000"/>
<line stroke="black" x1="636.3636363636364" x2="909.090909090909" y1="900" y2="1000"/>
<line stroke="black" x1="545.4545454545455" x2="909.090909090909" y1="900" y2="1000"/>
<line stroke="black" x1="272.72727272727275" x2="909.090909090909" y1="900" y2="1000"/>
<line stroke="black" x1="818.1818181818181" x2="909.090909090909" y1="900" y2="1000"/>
<line stroke="black" x1="727.2727272727273" x2="909.090909090909" y1="900" y2="1000"/>
<line stroke="black" x1="363.6363636363636" x2="909.090909090909" y1="900" y2="1000"/>
<line stroke="black" x1="181.8181818181818" x2="909.090909090909" y1="900" y2="1000"/>
<line stroke="black" x1="909.090909090909" x2="909.090909090909" y1="900" y2="1000"/>
<line stroke="black" x1="90.9090909090909" x2="909.090909090909" y1="900" y2="1000"/>
<line stroke="black" x1="363.6363636363636" x2="454.5454545454545" y1="800" y2="900"/>
<line stroke="black" x1="636.3636363636364" x2="454.5454545454545" y1="800" y2="900"/>
<line stroke="black" x1="545.4545454545455" x2="454.5454545454545" y1="800" y2="900"/>
<line stroke="black" x1="818.1818181818181" x2="454.5454545454545" y1="800" y2="900"/>
<line stroke="black" x1="90.9090909090909" x2="454.5454545454545" y1="800" y2="900"/>
<line stroke="black" x1="272.72727272727275" x2="454.5454545454545" y1="800" y2="900"/>
<line stroke="black" x1="727.2727272727273" x2="454.5454545454545" y1="800" y2="900"/>
<line stroke="black" x1="454.5454545454545" x2="454.5454545454545" y1="800" y2="900"/>
<line stroke="black" x1="909.090909090909" x2="454.5454545454545" y1="800" y2="900"/>
<line stroke="black" x1="181.8181818181818" x2="454.5454545454545" y1="800" y2="900"/>
<line stroke="black" x1="454.5454545454545" x2="636.3636363636364" y1="1000" y2="1100"/>
<line stroke="black" x1="181.8181818181818" x2="636.3636363636364" y1="1000" y2="1100"/>
<line stroke="black" x1="545.4545454545455" x2="636.3636363636364" y1="1000" y2="1100"/>
<line stroke="black" x1="90.9090909090909" x2="636.3636363636364" y1="1000" y2="1100"/>
<line stroke="black" x1="636.3636363636364" x2="636.3636363636364" y1="1000" y2="1100"/>
<line stroke="black" x1="363.6363636363636" x2="636.3636363636364" y1="1000" y2="1100"/>
<line stroke="black" x1="818.1818181818181" x2="636.3636363636364" y1="1000" y2="1100"/>
<line stroke="black" x1="272.72727272727275" x2="636.3636363636364" y1="1000" y2="1100"/>
<line stroke="black" x1="909.090909090909" x2="636.3636363636364" y1="1000" y2="1100"/>
<line stroke="black" x1="727.2727272727273" x2="636.3636363636364" y1="1000" y2="1100"/>
<line stroke="black" x1="909.090909090909" x2="636.3636363636364" y1="800" y2="900"/>
<line stroke="black" x1="545.4545454545455" x2="636.3636363636364" y1="800" y2="900"/>
<line stroke="black" x1="636.3636363636364" x2="636.3636363636364" y1="800" y2="900"/>
<line stroke="black" x1="181.8181818181818" x2="636.3636363636364" y1="800" y2="900"/>
<line stroke="black" x1="363.6363636363636" x2="636.3636363636364" y1="800" y2="900"/>
<line stroke="black" x1="454.5454545454545" x2="636.3636363636364" y1="800" y2="900"/>
<line stroke="black" x1="90.9090909090909" x2="636.3636363636364" y1="800" y2="900"/>
<line stroke="black" x1="818.1818181818181" x2="636.3636363636364" y1="800" y2="900"/>
<line stroke="black" x1="727.2727272727273" x2="636.3636363636364" y1="800" y2="900"/>
<line stroke="black" x1="272.72727272727275" x2="636.3636363636364" y1="800" y2="900"/>
<line stroke="black" x1="818.1818181818181" x2="363.6363636363636" y1="300" y2="400"/>
<line stroke="black" x1="545.4545454545455" x2="363.6363636363636" y1="300" y2="400"/>
<line stroke="black" x1="636.3636363636364" x2="363.6363636363636" y1="300" y2="400"/>
<line stroke="black" x1="727.2727272727273" x2="363.6363636363636" y1="300" y2="400"/>
<line stroke="black" x1="90.9090909090909" x2="363.6363636363636" y1="300" y2="400"/>
<line stroke="black" x1="272.72727272727275" x2="363.6363636363636" y1="300" y2="400"/>
<line stroke="black" x1="363.6363636363636" x2="363.6363636363636" y1="300" y2="400"/>
<line stroke="black" x1="454.5454545454545" x2="363.6363636363636" y1="300" y2="400"/>
<line stroke="black" x1="181.8181818181818" x2="363.6363636363636" y1="300" y2="400"/>
<line stroke="black" x1="909.090909090909" x2="363.6363636363636" y1="300" y2="400"/>
<line stroke="black" x1="909.090909090909" x2="727.2727272727273" y1="600" y2="700"/>
<line stroke="black" x1="363.6363636363636" x2="727.2727272727273" y1="600" y2="700"/>
<line stroke="black" x1="181.8181818181818" x2="727.2727272727273" y1="600" y2="700"/>
<line stroke="black" x1="727.2727272727273" x2="727.2727272727273" y1="600" y2="700"/>
<line stroke="black" x1="636.3636363636364" x2="727.2727272727273" y1="600" y2="700"/>
<line stroke="black" x1="545.4545454545455" x2="727.2727272727273" y1="600" y2="700"/>
<line stroke="black" x1="90.9090909090909" x2="727.2727272727273" y1="600" y2="700"/>
<line stroke="black" x1="454.5454545454545" x2="727.2727272727273" y1="600" y2="700"/>
<line stroke="black" x1="272.72727272727275" x2="727.2727272727273" y1="600" y2="700"/>
<line stroke="black" x1="818.1818181818181" x2="727.2727272727273" y1="600" y2="700"/>
<line stroke="black" x1="181.8181818181818" x2="181.8181818181818" y1="700" y2="800"/>
<line stroke="black" x1="272.72727272727275" x2="181.8181818181818" y1="700" y2="800"/>
<line stroke="black" x1="818.1818181818181" x2="181.8181818181818" y1="700" y2="800"/>
<line stroke="black" x1="727.2727272727273" x2="181.8181818181818" y1="700" y2="800"/>
<line stroke="black" x1="909.090909090909" x2="181.8181818181818" y1="700" y2="800"/>
<line stroke="black" x1="636.3636363636364" x2="181.8181818181818" y1="700" y2="800"/>
<line stroke="black" x1="90.9090909090909" x2="181.8181818181818" y1="700" y2="800"/>
<line stroke="black" x1="545.4545454545455" x2="181.8181818181818" y1="700" y2="800"/>
<line stroke="black" x1="363.6363636363636" x2="181.8181818181818" y1="700" y2="800"/>
<line stroke="black" x1="454.5454545454545" x2="181.8181818181818" y1="700" y2="800"/>
<line stroke="black" x1="181.8181818181818" x2="272.72727272727275" y1="800" y2="900"/>
<line stroke="black" x1="818.1818181818181" x2="272.72727272727275" y1="800" y2="900"/>
<line stroke="black" x1="363.6363636363636" x2="272.72727272727275" y1="800" y2="900"/>
<line stroke="black" x1="727.2727272727273" x2="272.72727272727275" y1="800" y2="900"/>
<line stroke="black" x1="636.3636363636364" x2="272.72727272727275" y1="800" y2="900"/>
<line stroke="black" x1="90.9090909090909" x2="272.72727272727275" y1="800" y2="900"/>
<line stroke="black" x1="272.72727272727275" x2="272.72727272727275" y1="800" y2="900"/>
<line stroke="black" x1="909.090909090909" x2="272.72727272727275" y1="800" y2="900"/>
<line stroke="black" x1="545.4545454545455" x2="272.72727272727275" y1="800" y2="900"/>
<line stroke="black" x1="454.5454545454545" x2="272.72727272727275" y1="800" y2="900"/>
<line stroke="black" x1="636.3636363636364" x2="363.6363636363636" y1="1000" y2="1100"/>
<line stroke="black" x1="90.9090909090909" x2="363.6363636363636" y1="1000" y2="1100"/>
<line stroke="black" x1="818.1818181818181" x2="363.6363636363636" y1="1000" y2="1100"/>
<line stroke="black" x1="272.72727272727275" x2="363.6363636363636" y1="1000" y2="1100"/>
<line stroke="black" x1="545.4545454545455" x2="363.6363636363636" y1="1000" y2="1100"/>
<line stroke="black" x1="454.5454545454545" x2="363.6363636363636" y1="1000" y2="1100"/>
<line stroke="black" x1="727.2727272727273" x2="363.6363636363636" y1="1000" y2="1100"/>
<line stroke="black" x1="909.090909090909" x2="363.6363636363636" y1="1000" y2="1100"/>
<line stroke="black" x1="363.6363636363636" x2="363.6363636363636" y1="1000" y2="1100"/>
<line stroke="black" x1="181.8181818181818" x2="363.6363636363636" y1="1000" y2="1100"/>
<line stroke="black" x1="636.3636363636364" x2="818.1818181818181" y1="500" y2="600"/>
<line stroke="black" x1="454.5454545454545" x2="818.1818181818181" y1="500" y2="600"/>
<line stroke="black" x1="181.8181818181818" x2="818.1818181818181" y1="500" y2="600"/>
<line stroke="black" x1="90.9090909090909" x2="818.1818181818181" y1="500" y2="600"/>
<line stroke="black" x1="818.1818181818181" x2="818.1818181818181" y1="500" y2="600"/>
<line stroke="black" x1="363.6363636363636" x2="818.1818181818181" y1="500" y2="600"/>
<line stroke="black" x1="545.4545454545455" x2="818.1818181818181" y1="500" y2="600"/>
<line stroke="black" x1="272.72727272727275" x2="818.1818181818181" y1="500" y2="600"/>
<line stroke="black" x1="727.2727272727273" x2="818.1818181818181" y1="500" y2="600"/>
<line stroke="black" x1="909.090909090909" x2="818.1818181818181" y1="500" y2="600"/>
<line stroke="black" x1="181.8181818181818" x2="454.5454545454545" y1="1000" y2="1100"/>
<line stroke="black" x1="363.6363636363636" x2="454.5454545454545" y1="1000" y2="1100"/>
<line stroke="black" x1="272.72727272727275" x2="454.5454545454545" y1="1000" y2="1100"/>
<line stroke="black" x1="545.4545454545455" x2="454.5454545454545" y1="1000" y2="1100"/>
<line stroke="black" x1="818.1818181818181" x2="454.5454545454545" y1="1000" y2="1100"/>
<line stroke="black" x1="727.2727272727273" x2="454.5454545454545" y1="1000" y2="1100"/>
<line stroke="black" x1="636.3636363636364" x2="454.5454545454545" y1="1000" y2="1100"/>
<line stroke="black" x1="909.090909090909" x2="454.5454545454545" y1="1000" y2="1100"/>
<line stroke="black" x1="90.9090909090909" x2="454.5454545454545" y1="1000" y2="1100"/>
<line stroke="black" x1="454.5454545454545" x2="454.5454545454545" y1="1000" y2="1100"/>
<line stroke="black" x1="181.8181818181818" x2="727.2727272727273" y1="900" y2="1000"/>
<line stroke="black" x1="909.090909090909" x2="727.2727272727273" y1="900" y2="1000"/>
<line stroke="black" x1="636.3636363636364" x2="727.2727272727273" y1="900" y2="1000"/>
<line stroke="black" x1="363.6363636363636" x2="727.2727272727273" y1="900" y2="1000"/>
<line stroke="black" x1="272.72727272727275" x2="727.2727272727273" y1="900" y2="1000"/>
<line stroke="black" x1="818.1818181818181" x2="727.2727272727273" y1="900" y2="1000"/>
<line stroke="black" x1="90.9090909090909" x2="727.2727272727273" y1="900" y2="1000"/>
<line stroke="black" x1="545.4545454545455" x2="727.2727272727273" y1="900" y2="1000"/>
<line stroke="black" x1="454.5454545454545" x2="727.2727272727273" y1="900" y2="1000"/>
<line stroke="black" x1="727.2727272727273" x2="727.2727272727273" y1="900" y2="1000"/>
<line stroke="black" x1="545.4545454545455" x2="181.8181818181818" y1="800" y2="900"/>
<line stroke="black" x1="272.72727272727275" x2="181.8181818181818" y1="800" y2="900"/>
<line stroke="black" x1="90.9090909090909" x2="181.8181818181818" y1="800" y2="900"/>
<line stroke="black" x1="363.6363636363636" x2="181.8181818181818" y1="800" y2="900"/>
<line stroke="black" x1="181.8181818181818" x2="181.8181818181818" y1="800" y2="900"/>
<line stroke="black" x1="636.3636363636364" x2="181.8181818181818" y1="800" y2="900"/>
<line stroke="black" x1="454.5454545454545" x2="181.8181818181818" y1="800" y2="900"/>
<line stroke="black" x1="818.1818181818181" x2="181.8181818181818" y1="800" y2="900"/>
<line stroke="black" x1="727.2727272727273" x2="181.8181818181818" y1="800" y2="900"/>
<line stroke="black" x1="909.090909090909" x2="181.8181818181818" y1="800" y2="900"/>
<line stroke="black" x1="545.4545454545455" x2="909.090909090909" y1="200" y2="300"/>
<line stroke="black" x1="181.8181818181818" x2="909.090909090909" y1="200" y2="300"/>
<line stroke="black" x1="90.9090909090909" x2="909.090909090909" y1="200" y2="300"/>
<line stroke="black" x1="363.6363636363636" x2="909.090909090909" y1="200" y2="300"/>
<line stroke="black" x1="818.1818181818181" x2="909.090909090909" y1="200" y2="300"/>
<line stroke="black" x1="636.3636363636364" x2="909.090909090909" y1="200" y2="300"/>
<line stroke="black" x1="454.5454545454545" x2="909.090909090909" y1="200" y2="300"/>
<line stroke="black" x1="909.090909090909" x2="909.090909090909" y1="200" y2="300"/>
<line stroke="black" x1="272.72727272727275" x2="909.090909090909" y1="200" y2="300"/>
<line stroke="black" x1="727.2727272727273" x2="909.090909090909" y1="200" y2="300"/>
<line stroke="black" x1="909.090909090909" x2="818.1818181818181" y1="400" y2="500"/>
<line stroke="black" x1="181.8181818181818" x2="818.1818181818181" y1="400" y2="500"/>
<line stroke="black" x1="636.3636363636364" x2="818.1818181818181" y1="400" y2="500"/>
<line stroke="black" x1="818.1818181818181" x2="818.1818181818181" y1="400" y2="500"/>
<line stroke="black" x1="727.2727272727273" x2="818.1818181818181" y1="400" y2="500"/>
<line stroke="black" x1="272.72727272727275" x2="818.1818181818181" y1="400" y2="500"/>
<line stroke="black" x1="454.5454545454545" x2="818.1818181818181" y1="400" y2="500"/>
<line stroke="black" x1="545.4545454545455" x2="818.1818181818181" y1="400" y2="500"/>
<line stroke="black" x1="363.6363636363636" x2="818.1818181818181" y1="400" y2="500"/>
<line stroke="black" x1="90.9090909090909" x2="818.1818181818181" y1="400" y2="500"/>
<line stroke="black" x1="818.1818181818181" x2="727.2727272727273" y1="700" y2="800"/>
<line stroke="black" x1="272.72727272727275" x2="727.2727272727273" y1="700" y2="800"/>
<line stroke="black" x1="90.9090909090909" x2="727.2727272727273" y1="700" y2="800"/>
<line stroke="black" x1="636.3636363636364" x2="727.2727272727273" y1="700" y2="800"/>
<line stroke="black" x1="727.2727272727273" x2="727.2727272727273" y1="700" y2="800"/>
<line stroke="black" x1="363.6363636363636" x2="727.2727272727273" y1="700" y2="800"/>
<line stroke="black" x1="181.8181818181818" x2="727.2727272727273" y1="700" y2="800"/>
<line stroke="black" x1="545.4545454545455" x2="727.2727272727273" y1="700" y2="800"/>
<line stroke="black" x1="454.5454545454545" x2="727.2727272727273" y1="700" y2="800"/>
<line stroke="black" x1="909.090909090909" x2="727.2727272727273" y1="700" y2="800"/>
<line stroke="black" x1="454.5454545454545" x2="272.72727272727275" y1="700" y2="800"/>
<line stroke="black" x1="545.4545454545455" x2="272.72727272727275" y1="700" y2="800"/>
<line stroke="black" x1="636.3636363636364" x2="272.72727272727275" y1="700" y2="800"/>
<line stroke="black" x1="272.72727272727275" x2="272.72727272727275" y1="700" y2="800"/>
<line stroke="black" x1="363.6363636363636" x2="272.72727272727275" y1="700" y2="800"/>
<line stroke="black" x1="818.1818181818181" x2="272.72727272727275" y1="700" y2="800"/>
<line stroke="black" x1="727.2727272727273" x2="272.72727272727275" y1="700" y2="800"/>
<line stroke="black" x1="90.9090909090909" x2="272.72727272727275" y1="700" y2="800"/>
<line stroke="black" x1="181.8181818181818" x2="272.72727272727275" y1="700" y2="800"/>
<line stroke="black" x1="909.090909090909" x2="272.72727272727275" y1="700" y2="800"/>
<line stroke="black" x1="363.6363636363636" x2="636.3636363636364" y1="400" y2="500"/>
<line stroke="black" x1="818.1818181818181" x2="636.3636363636364" y1="400" y2="500"/>
<line stroke="black" x1="545.4545454545455" x2="636.3636363636364" y1="400" y2="500"/>
<line stroke="black" x1="909.090909090909" x2="636.3636363636364" y1="400" y2="500"/>
<line stroke="black" x1="181.8181818181818" x2="636.3636363636364" y1="400" y2="500"/>
<line stroke="black" x1="636.3636363636364" x2="636.3636363636364" y1="400" y2="500"/>
<line stroke="black" x1="454.5454545454545" x2="636.3636363636364" y1="400" y2="500"/>
<line stroke="black" x1="90.9090909090909" x2="636.3636363636364" y1="400" y2="500"/>
<line stroke="black" x1="727.2727272727273" x2="636.3636363636364" y1="400" y2="500"/>
<line stroke="black" x1="272.72727272727275" x2="636.3636363636364" y1="400" y2="500"/>
<line stroke="black" x1="727.2727272727273" x2="363.6363636363636" y1="200" y2="300"/>
<line stroke="black" x1="363.6363636363636" x2="363.6363636363636" y1="200" y2="300"/>
<line stroke="black" x1="90.9090909090909" x2="363.6363636363636" y1="200" y2="300"/>
<line stroke="black" x1="545.4545454545455" x2="363.6363636363636" y1="200" y2="300"/>
<line stroke="black" x1="818.1818181818181" x2="363.6363636363636" y1="200" y2="300"/>
<line stroke="black" x1="181.8181818181818" x2="363.6363636363636" y1="200" y2="300"/>
<line stroke="black" x1="636.3636363636364" x2="363.6363636363636" y1="200" y2="300"/>
<line stroke="black" x1="909.090909090909" x2="363.6363636363636" y1="200" y2="300"/>
<line stroke="black" x1="272.72727272727275" x2="363.6363636363636" y1="200" y2="300"/>
<line stroke="black" x1="454.5454545454545" x2="363.6363636363636" y1="200" y2="300"/>
<line stroke="black" x1="363.6363636363636" x2="454.5454545454545" y1="500" y2="600"/>
<line stroke="black" x1="90.9090909090909" x2="454.5454545454545" y1="500" y2="600"/>
<line stroke="black" x1="272.72727272727275" x2="454.5454545454545" y1="500" y2="600"/>
<line stroke="black" x1="727.2727272727273" x2="454.5454545454545" y1="500" y2="600"/>
<line stroke="black" x1="181.8181818181818" x2="454.5454545454545" y1="500" y2="600"/>
<line stroke="black" x1="909.090909090909" x2="454.5454545454545" y1="500" y2="600"/>
<line stroke="black" x1="818.1818181818181" x2="454.5454545454545" y1="500" y2="600"/>
<line stroke="black" x1="636.3636363636364" x2="454.5454545454545" y1="500" y2="600"/>
<line stroke="black" x1="454.5454545454545" x2="454.5454545454545" y1="500" y2="600"/>
<line stroke="black" x1="545.4545454545455" x2="454.5454545454545" y1="500" y2="600"/>
<line stroke="black" x1="90.9090909090909" x2="545.4545454545455" y1="600" y2="700"/>
<line stroke="black" x1="909.090909090909" x2="545.4545454545455" y1="600" y2="700"/>
<line stroke="black" x1="727.2727272727273" x2="545.4545454545455" y1="600" y2="700"/>
<line stroke="black" x1="181.8181818181818" x2="545.4545454545455" y1="600" y2="700"/>
<line stroke="black" x1="363.6363636363636" x2="545.4545454545455" y1="600" y2="700"/>
<line stroke="black" x1="545.4545454545455" x2="545.4545454545455" y1="600" y2="700"/>
<line stroke="black" x1="272.72727272727275" x2="545.4545454545455" y1="600" y2="700"/>
<line stroke="black" x1="636.3636363636364" x2="545.4545454545455" y1="600" y2="700"/>
<line stroke="black" x1="454.5454545454545" x2="545.4545454545455" y1="600" y2="700"/>
<line stroke="black" x1="818.1818181818181" x2="545.4545454545455" y1="600" y2="700"/>
<line stroke="black" x1="727.2727272727273" x2="363.6363636363636" y1="500" y2="600"/>
<line stroke="black" x1="454.5454545454545" x2="363.6363636363636" y1="500" y2="600"/>
<line stroke="black" x1="909.090909090909" x2="363.6363636363636" y1="500" y2="600"/>
<line stroke="black" x1="363.6363636363636" x2="363.6363636363636" y1="500" y2="600"/>
<line stroke="black" x1="181.8181818181818" x2="363.6363636363636" y1="500" y2="600"/>
<line stroke="black" x1="272.72727272727275" x2="363.6363636363636" y1="500" y2="600"/>
<line stroke="black" x1="545.4545454545455" x2="363.6363636363636" y1="500" y2="600"/>
<line stroke="black" x1="90.9090909090909" x2="363.6363636363636" y1="500" y2="600"/>
<line stroke="black" x1="818.1818181818181" x2="363.6363636363636" y1="500" y2="600"/>
<line stroke="black" x1="636.3636363636364" x2="363.6363636363636" y1="500" y2="600"/>
<line stroke="black" x1="636.3636363636364" x2="181.8181818181818" y1="500" y2="600"/>
<line stroke="black" x1="545.4545454545455" x2="181.8181818181818" y1="500" y2="600"/>
<line stroke="black" x1="727.2727272727273" x2="181.8181818181818" y1="500" y2="600"/>
<line stroke="black" x1="181.8181818181818" x2="181.8181818181818" y1="500" y2="600"/>
<line stroke="black" x1="909.090909090909" x2="181.8181818181818" y1="500" y2="600"/>
<line stroke="black" x1="363.6363636363636" x2="181.8181818181818" y1="500" y2="600"/>
<line stroke="black" x1="90.9090909090909" x2="181.8181818181818" y1="500" y2="600"/>
<line stroke="black" x1="272.72727272727275" x2="181.8181818181818" y1="500" y2="600"/>
<line stroke="black" x1="454.5454545454545" x2="181.8181818181818" y1="500" y2="600"/>
<line stroke="black" x1="818.1818181818181" x2="181.8181818181818" y1="500" y2="600"/>
<line stroke="black" x1="818.1818181818181" x2="545.4545454545455" y1="700" y2="800"/>
<line stroke="black" x1="181.8181818181818" x2="545.4545454545455" y1="700" y2="800"/>
<line stroke="black" x1="363.6363636363636" x2="545.4545454545455" y1="700" y2="800"/>
<line stroke="black" x1="272.72727272727275" x2="545.4545454545455" y1="700" y2="800"/>
<line stroke="black" x1="727.2727272727273" x2="545.4545454545455" y1="700" y2="800"/>
<line stroke="black" x1="909.090909090909" x2="545.4545454545455" y1="700" y2="800"/>
<line stroke="black" x1="454.5454545454545" x2="545.4545454545455" y1="700" y2="800"/>
<line stroke="black" x1="636.3636363636364" x2="545.4545454545455" y1="700" y2="800"/>
<line stroke="black" x1="90.9090909090909" x2="545.4545454545455" y1="700" y2="800"/>
<line stroke="black" x1="545.4545454545455" x2="545.4545454545455" y1="700" y2="800"/>
<line stroke="black" x1="272.72727272727275" x2="454.5454545454545" y1="300" y2="400"/>
<line stroke="black" x1="90.9090909090909" x2="454.5454545454545" y1="300" y2="400"/>
<line stroke="black" x1="636.3636363636364" x2="454.5454545454545" y1="300" y2="400"/>
<line stroke="black" x1="818.1818181818181" x2="454.5454545454545" y1="300" y2="400"/>
<line stroke="black" x1="181.8181818181818" x2="454.5454545454545" y1="300" y2="400"/>
<line stroke="black" x1="545.4545454545455" x2="454.5454545454545" y1="300" y2="400"/>
<line stroke="black" x1="727.2727272727273" x2="454.5454545454545" y1="300" y2="400"/>
<line stroke="black" x1="454.5454545454545" x2="454.5454545454545" y1="300" y2="400"/>
<line stroke="black" x1="363.6363636363636" x2="454.5454545454545" y1="300" y2="400"/>
<line stroke="black" x1="909.090909090909" x2="454.5454545454545" y1="300" y2="400"/>
<line stroke="black" x1="545.4545454545455" x2="909.090909090909" y1="800" y2="900"/>
<line stroke="black" x1="90.9090909090909" x2="909.090909090909" y1="800" y2="900"/>
<line stroke="black" x1="363.6363636363636" x2="909.090909090909" y1="800" y2="900"/>
<line stroke="black" x1="909.090909090909" x2="909.090909090909" y1="800" y2="900"/>
<line stroke="black" x1="272.72727272727275" x2="909.090909090909" y1="800" y2="900"/>
<line stroke="black" x1="454.5454545454545" x2="909.090909090909" y1="800" y2="900"/>
<line stroke="black" x1="181.8181818181818" x2="909.090909090909" y1="800" y2="900"/>
<line stroke="black" x1="727.2727272727273" x2="909.090909090909" y1="800" y2="900"/>
<line stroke="black" x1="818.1818181818181" x2="909.090909090909" y1="800" y2="900"/>
<line stroke="black" x1="636.3636363636364" x2="909.090909090909" y1="800" y2="900"/>
<line stroke="black" x1="90.9090909090909" x2="363.6363636363636" y1="800" y2="900"/>
<line stroke="black" x1="454.5454545454545" x2="363.6363636363636" y1="800" y2="900"/>
<line stroke="black" x1="909.090909090909" x2="363.6363636363636" y1="800" y2="900"/>
<line stroke="black" x1="636.3636363636364" x2="363.6363636363636" y1="800" y2="900"/>
<line stroke="black" x1="545.4545454545455" x2="363.6363636363636" y1="800" y2="900"/>
<line stroke="black" x1="727.2727272727273" x2="363.6363636363636" y1="800" y2="900"/>
<line stroke="black" x1="272.72727272727275" x2="363.6363636363636" y1="800" y2="900"/>
<line stroke="black" x1="363.6363636363636" x2="363.6363636363636" y1="800" y2="900"/>
<line stroke="black" x1="181.8181818181818" x2="363.6363636363636" y1="800" y2="900"/>
<line stroke="black" x1="818.1818181818181" x2="363.6363636363636" y1="800" y2="900"/>
<line stroke="black" x1="545.4545454545455" x2="181.8181818181818" y1="900" y2="1000"/>
<line stroke="black" x1="272.72727272727275" x2="181.8181818181818" y1="900" y2="1000"/>
<line stroke="black" x1="818.1818181818181" x2="181.8181818181818" y1="900" y2="1000"/>
<line stroke="black" x1="909.090909090909" x2="181.8181818181818" y1="900" y2="1000"/>
<line stroke="black" x1="727.2727272727273" x2="181.8181818181818" y1="900" y2="1000"/>
<line stroke="black" x1="90.9090909090909" x2="181.8181818181818" y1="900" y2="1000"/>
<line stroke="black" x1="636.3636363636364" x2="181.8181818181818" y1="900" y2="1000"/>
<line stroke="black" x1="363.6363636363636" x2="181.8181818181818" y1="900" y2="1000"/>
<line stroke="black" x1="454.5454545454545" x2="181.8181818181818" y1="900" y2="1000"/>
<line stroke="black" x1="181.8181818181818" x2="181.8181818181818" y1="900" y2="1000"/>
<line stroke="black" x1="363.6363636363636" x2="545.4545454545455" y1="400" y2="500"/>
<line stroke="black" x1="636.3636363636364" x2="545.4545454545455" y1="400" y2="500"/>
<line stroke="black" x1="181.8181818181818" x2="545.4545454545455" y1="400" y2="500"/>
<line stroke="black" x1="909.090909090909" x2="545.4545454545455" y1="400" y2="500"/>
<line stroke="black" x1="90.9090909090909" x2="545.4545454545455" y1="400" y2="500"/>
<line stroke="black" x1="454.5454545454545" x2="545.4545454545455" y1="400" y2="500"/>
<line stroke="black" x1="545.4545454545455" x2="545.4545454545455" y1="400" y2="500"/>
<line stroke="black" x1="818.1818181818181" x2="545.4545454545455" y1="400" y2="500"/>
<line stroke="black" x1="272.72727272727275" x2="545.4545454545455" y1="400" y2="500"/>
<line stroke="black" x1="727.2727272727273" x2="545.4545454545455" y1="400" y2="500"/>
<line stroke="black" x1="909.090909090909" x2="454.5454545454545" y1="400" y2="500"/>
<line stroke="black" x1="90.9090909090909" x2="454.5454545454545" y1="400" y2="500"/>
<line stroke="black" x1="454.5454545454545" x2="454.5454545454545" y1="400" y2="500"/>
<line stroke="black" x1="272.72727272727275" x2="454.5454545454545" y1="400" y2="500"/>
<line stroke="black" x1="727.2727272727273" x2="454.5454545454545" y1="400" y2="500"/>
<line stroke="black" x1="818.1818181818181" x2="454.5454545454545" y1="400" y2="500"/>
<line stroke="black" x1="545.4545454545455" x2="454.5454545454545" y1="400" y2="500"/>
<line stroke="black" x1="181.8181818181818" x2="454.5454545454545" y1="400" y2="500"/>
<line stroke="black" x1="636.3636363636364" x2="454.5454545454545" y1="400" y2="500"/>
<line stroke="black" x1="363.6363636363636" x2="454.5454545454545" y1="400" y2="500"/>
<line stroke="black" x1="363.6363636363636" x2="272.72727272727275" y1="500" y2="600"/>
<line stroke="black" x1="454.5454545454545" x2="272.72727272727275" y1="500" y2="600"/>
<line stroke="black" x1="90.9090909090909" x2="272.72727272727275" y1="500" y2="600"/>
<line stroke="black" x1="636.3636363636364" x2="272.72727272727275" y1="500" y2="600"/>
<line stroke="black" x1="545.4545454545455" x2="272.72727272727275" y1="500" y2="600"/>
<line stroke="black" x1="909.090909090909" x2="272.72727272727275" y1="500" y2="600"/>
<line stroke="black" x1="818.1818181818181" x2="272.72727272727275" y1="500" y2="600"/>
<line stroke="black" x1="272.72727272727275" x2="272.72727272727275" y1="500" y2="600"/>
<line stroke="black" x1="727.2727272727273" x2="272.72727272727275" y1="500" y2="600"/>
<line stroke="black" x1="181.8181818181818" x2="272.72727272727275" y1="500" y2="600"/>
<line stroke="black" x1="181.8181818181818" x2="818.1818181818181" y1="1000" y2="1100"/>
<line stroke="black" x1="909.090909090909" x2="818.1818181818181" y1="1000" y2="1100"/>
<line stroke="black" x1="363.6363636363636" x2="818.1818181818181" y1="1000" y2="1100"/>
<line stroke="black" x1="454.5454545454545" x2="818.1818181818181" y1="1000" y2="1100"/>
<line stroke="black" x1="727.2727272727273" x2="818.1818181818181" y1="1000" y2="1100"/>
<line stroke="black" x1="272.72727272727275" x2="818.1818181818181" y1="1000" y2="1100"/>
<line stroke="black" x1="90.9090909090909" x2="818.1818181818181" y1="1000" y2="1100"/>
<line stroke="black" x1="818.1818181818181" x2="818.1818181818181" y1="1000" y2="1100"/>
<line stroke="black" x1="636.3636363636364" x2="818.1818181818181" y1="1000" y2="1100"/>
<line stroke="black" x1="545.4545454545455" x2="818.1818181818181" y1="1000" y2="1100"/>
<line stroke="black" x1="636.3636363636364" x2="454.5454545454545" y1="700" y2="800"/>
<line stroke="black" x1="545.4545454545455" x2="454.5454545454545" y1="700" y2="800"/>
<line stroke="black" x1="181.8181818181818" x2="454.5454545454545" y1="700" y2="800"/>
<line stroke="black" x1="727.2727272727273" x2="454.5454545454545" y1="700" y2="800"/>
<line stroke="black" x1="909.090909090909" x2="454.5454545454545" y1="700" y2="800"/>
<line stroke="black" x1="454.5454545454545" x2="454.5454545454545" y1="700" y2="800"/>
<line stroke="black" x1="90.9090909090909" x2="454.5454545454545" y1="700" y2="800"/>
<line stroke="black" x1="272.72727272727275" x2="454.5454545454545" y1="700" y2="800"/>
<line stroke="black" x1="818.1818181818181" x2="454.5454545454545" y1="700" y2="800"/>
<line stroke="black" x1="363.6363636363636" x2="454.5454545454545" y1="700" y2="800"/>
<line stroke="black" x1="272.72727272727275" x2="818.1818181818181" y1="700" y2="800"/>
<line stroke="black" x1="727.2727272727273" x2="818.1818181818181" y1="700" y2="800"/>
<line stroke="black" x1="545.4545454545455" x2="818.1818181818181" y1="700" y2="800"/>
<line stroke="black" x1="454.5454545454545" x2="818.1818181818181" y1="700" y2="800"/>
<line stroke="black" x1="363.6363636363636" x2="818.1818181818181" y1="700" y2="800"/>
<line stroke="black" x1="181.8181818181818" x2="818.1818181818181" y1="700" y2="800"/>
<line stroke="black" x1="818.1818181818181" x2="818.1818181818181" y1="700" y2="800"/>
<line stroke="black" x1="90.9090909090909" x2="818.1818181818181" y1="700" y2="800"/>
<line stroke="black" x1="636.3636363636364" x2="818.1818181818181" y1="700" y2="800"/>
<line stroke="black" x1="909.090909090909" x2="818.1818181818181" y1="700" y2="800"/>
<line stroke="black" x1="90.9090909090909" x2="90.9090909090909" y1="400" y2="500"/>
<line stroke="black" x1="909.090909090909" x2="90.9090909090909" y1="400" y2="500"/>
<line stroke="black" x1="363.6363636363636" x2="90.9090909090909" y1="400" y2="500"/>
<line stroke="black" x1="545.4545454545455" x2="90.9090909090909" y1="400" y2="500"/>
<line stroke="black" x1="454.5454545454545" x2="90.9090909090909" y1="400" y2="500"/>
<line stroke="black" x1="818.1818181818181" x2="90.9090909090909" y1="400" y2="500"/>
<line stroke="black" x1="727.2727272727273" x2="90.9090909090909" y1="400" y2="500"/>
<line stroke="black" x1="272.72727272727275" x2="90.9090909090909" y1="400" y2="500"/>
<line stroke="black" x1="181.8181818181818" x2="90.9090909090909" y1="400" y2="500"/>
<line stroke="black" x1="636.3636363636364" x2="90.9090909090909" y1="400" y2="500"/>
<line stroke="black" x1="272.72727272727275" x2="90.9090909090909" y1="700" y2="800"/>
<line stroke="black" x1="818.1818181818181" x2="90.9090909090909" y1="700" y2="800"/>
<line stroke="black" x1="363.6363636363636" x2="90.9090909090909" y1="700" y2="800"/>
<line stroke="black" x1="909.090909090909" x2="90.9090909090909" y1="700" y2="800"/>
<line stroke="black" x1="181.8181818181818" x2="90.9090909090909" y1="700" y2="800"/>
<line stroke="black" x1="545.4545454545455" x2="90.9090909090909" y1="700" y2="800"/>
<line stroke="black" x1="727.2727272727273" x2="90.9090909090909" y1="700" y2="800"/>
<line stroke="black" x1="636.3636363636364" x2="90.9090909090909" y1="700" y2="800"/>
<line stroke="black" x1="90.9090909090909" x2="90.9090909090909" y1="700" y2="800"/>
<line stroke="black" x1="454.5454545454545" x2="90.9090909090909" y1="700" y2="800"/>
<line stroke="black" x1="818.1818181818181" x2="909.090909090909" y1="700" y2="800"/>
<line stroke="black" x1="727.2727272727273" x2="909.090909090909" y1="700" y2="800"/>
<line stroke="black" x1="181.8181818181818" x2="909.090909090909" y1="700" y2="800"/>
<line stroke="black" x1="909.090909090909" x2="909.090909090909" y1="700" y2="800"/>
<line stroke="black" x1="90.9090909090909" x2="909.090909090909" y1="700" y2="800"/>
<line stroke="black" x1="272.72727272727275" x2="909.090909090909" y1="700" y2="800"/>
<line stroke="black" x1="363.6363636363636" x2="909.090909090909" y1="700" y2="800"/>
<line stroke="black" x1="636.3636363636364" x2="909.090909090909" y1="700" y2="800"/>
<line stroke="black" x1="545.4545454545455" x2="909.090909090909" y1="700" y2="800"/>
<line stroke="black" x1="454.5454545454545" x2="909.090909090909" y1="700" y2="800"/>
<line stroke="black" x1="909.090909090909" x2="363.6363636363636" y1="400" y2="500"/>
<line stroke="black" x1="727.2727272727273" x2="363.6363636363636" y1="400" y2="500"/>
<line stroke="black" x1="272.72727272727275" x2="363.6363636363636" y1="400" y2="500"/>
<line stroke="black" x1="90.9090909090909" x2="363.6363636363636" y1="400" y2="500"/>
<line stroke="black" x1="454.5454545454545" x2="363.6363636363636" y1="400" y2="500"/>
<line stroke="black" x1="818.1818181818181" x2="363.6363636363636" y1="400" y2="500"/>
<line stroke="black" x1="636.3636363636364" x2="363.6363636363636" y1="400" y2="500"/>
<line stroke="black" x1="545.4545454545455" x2="363.6363636363636" y1="400" y2="500"/>
<line stroke="black" x1="363.6363636363636" x2="363.6363636363636" y1="400" y2="500"/>
<line stroke="black" x1="181.8181818181818" x2="363.6363636363636" y1="400" y2="500"/>
<line stroke="black" x1="727.2727272727273" x2="454.5454545454545" y1="200" y2="300"/>
<line stroke="black" x1="545.4545454545455" x2="454.5454545454545" y1="200" y2="300"/>
<line stroke="black" x1="818.1818181818181" x2="454.5454545454545" y1="200" y2="300"/>
<line stroke="black" x1="636.3636363636364" x2="454.5454545454545" y1="200" y2="300"/>
<line stroke="black" x1="454.5454545454545" x2="454.5454545454545" y1="200" y2="300"/>
<line stroke="black" x1="272.72727272727275" x2="454.5454545454545" y1="200" y2="300"/>
<line stroke="black" x1="90.9090909090909" x2="454.5454545454545" y1="200" y2="300"/>
<line stroke="black" x1="181.8181818181818" x2="454.5454545454545" y1="200" y2="300"/>
<line stroke="black" x1="363.6363636363636" x2="454.5454545454545" y1="200" y2="300"/>
<line stroke="black" x1="909.090909090909" x2="454.5454545454545" y1="200" y2="300"/>
<line stroke="black" x1="727.2727272727273" x2="181.8181818181818" y1="400" y2="500"/>
<line stroke="black" x1="909.090909090909" x2="181.8181818181818" y1="400" y2="500"/>
<line stroke="black" x1="272.72727272727275" x2="181.8181818181818" y1="400" y2="500"/>
<line stroke="black" x1="90.9090909090909" x2="181.8181818181818" y1="400" y2="500"/>
<line stroke="black" x1="454.5454545454545" x2="181.8181818181818" y1="400" y2="500"/>
<line stroke="black" x1="818.1818181818181" x2="181.8181818181818" y1="400" y2="500"/>
<line stroke="black" x1="545.4545454545455" x2="181.8181818181818" y1="400" y2="500"/>
<line stroke="black" x1="181.8181818181818" x2="181.8181818181818" y1="400" y2="500"/>
<line stroke="black" x1="636.3636363636364" x2="181.8181818181818" y1="400" y2="500"/>
<line stroke="black" x1="363.6363636363636" x2="181.8181818181818" y1="400" y2="500"/>
<line stroke="black" x1="181.8181818181818" x2="90.9090909090909" y1="800" y2="900"/>
<line stroke="black" x1="363.6363636363636" x2="90.9090909090909" y1="800" y2="900"/>
<line stroke="black" x1="454.5454545454545" x2="90.9090909090909" y1="800" y2="900"/>
<line stroke="black" x1="636.3636363636364" x2="90.9090909090909" y1="800" y2="900"/>
<line stroke="black" x1="909.090909090909" x2="90.9090909090909" y1="800" y2="900"/>
<line stroke="black" x1="727.2727272727273" x2="90.9090909090909" y1="800" y2="900"/>
<line stroke="black" x1="90.9090909090909" x2="90.9090909090909" y1="800" y2="900"/>
<line stroke="black" x1="545.4545454545455" x2="90.9090909090909" y1="800" y2="900"/>
<line stroke="black" x1="272.72727272727275" x2="90.9090909090909" y1="800" y2="900"/>
<line stroke="black" x1="818.1818181818181" x2="90.9090909090909" y1="800" y2="900"/>
<line stroke="black" x1="636.3636363636364" x2="181.8181818181818" y1="1000" y2="1100"/>
<line stroke="black" x1="909.090909090909" x2="181.8181818181818" y1="1000" y2="1100"/>
<line stroke="black" x1="181.8181818181818" x2="181.8181818181818" y1="1000" y2="1100"/>
<line stroke="black" x1="545.4545454545455" x2="181.8181818181818" y1="1000" y2="1100"/>
<line stroke="black" x1="90.9090909090909" x2="181.8181818181818" y1="1000" y2="1100"/>
<line stroke="black" x1="454.5454545454545" x2="181.8181818181818" y1="1000" y2="1100"/>
<line stroke="black" x1="272.72727272727275" x2="181.8181818181818" y1="1000" y2="1100"/>
<line stroke="black" x1="727.2727272727273" x2="181.8181818181818" y1="1000" y2="1100"/>
<line stroke="black" x1="818.1818181818181" x2="181.8181818181818" y1="1000" y2="1100"/>
<line stroke="black" x1="363.6363636363636" x2="181.8181818181818" y1="1000" y2="1100"/>
<line stroke="black" x1="181.8181818181818" x2="545.4545454545455" y1="300" y2="400"/>
<line stroke="black" x1="454.5454545454545" x2="545.4545454545455" y1="300" y2="400"/>
<line stroke="black" x1="909.090909090909" x2="545.4545454545455" y1="300" y2="400"/>
<line stroke="black" x1="818.1818181818181" x2="545.4545454545455" y1="300" y2="400"/>
<line stroke="black" x1="636.3636363636364" x2="545.4545454545455" y1="300" y2="400"/>
<line stroke="black" x1="272.72727272727275" x2="545.4545454545455" y1="300" y2="400"/>
<line stroke="black" x1="90.9090909090909" x2="545.4545454545455" y1="300" y2="400"/>
<line stroke="black" x1="545.4545454545455" x2="545.4545454545455" y1="300" y2="400"/>
<line stroke="black" x1="727.2727272727273" x2="545.4545454545455" y1="300" y2="400"/>
<line stroke="black" x1="363.6363636363636" x2="545.4545454545455" y1="300" y2="400"/>
<line stroke="black" x1="636.3636363636364" x2="90.9090909090909" y1="300" y2="400"/>
<line stroke="black" x1="545.4545454545455" x2="90.9090909090909" y1="300" y2="400"/>
<line stroke="black" x1="818.1818181818181" x2="90.9090909090909" y1="300" y2="400"/>
<line stroke="black" x1="181.8181818181818" x2="90.9090909090909" y1="300" y2="400"/>
<line stroke="black" x1="90.9090909090909" x2="90.9090909090909" y1="300" y2="400"/>
<line stroke="black" x1="272.72727272727275" x2="90.9090909090909" y1="300" y2="400"/>
<line stroke="black" x1="454.5454545454545" x2="90.9090909090909" y1="300" y2="400"/>
<line stroke="black" x1="727.2727272727273" x2="90.9090909090909" y1="300" y2="400"/>
<line stroke="black" x1="363.6363636363636" x2="90.9090909090909" y1="300" y2="400"/>
<line stroke="black" x1="909.090909090909" x2="90.9090909090909" y1="300" y2="400"/>
<line stroke="black" x1="454.5454545454545" x2="181.8181818181818" y1="300" y2="400"/>
<line stroke="black" x1="909.090909090909" x2="181.8181818181818" y1="300" y2="400"/>
<line stroke="black" x1="727.2727272727273" x2="181.8181818181818" y1="300" y2="400"/>
<line stroke="black" x1="818.1818181818181" x2="181.8181818181818" y1="300" y2="400"/>
<line stroke="black" x1="363.6363636363636" x2="181.8181818181818" y1="300" y2="400"/>
<line stroke="black" x1="272.72727272727275" x2="181.8181818181818" y1="300" y2="400"/>
<line stroke="black" x1="181.8181818181818" x2="181.8181818181818" y1="300" y2="400"/>
<line stroke="black" x1="636.3636363636364" x2="181.8181818181818" y1="300" y2="400"/>
<line stroke="black" x1="545.4545454545455" x2="181.8181818181818" y1="300" y2="400"/>
<line stroke="black" x1="90.9090909090909" x2="181.8181818181818" y1="300" y2="400"/>
<line stroke="black" x1="90.9090909090909" x2="90.9090909090909" y1="600" y2="700"/>
<line stroke="black" x1="181.8181818181818" x2="90.9090909090909" y1="600" y2="700"/>
<line stroke="black" x1="545.4545454545455" x2="90.9090909090909" y1="600" y2="700"/>
<line stroke="black" x1="727.2727272727273" x2="90.9090909090909" y1="600" y2="700"/>
<line stroke="black" x1="818.1818181818181" x2="90.9090909090909" y1="600" y2="700"/>
<line stroke="black" x1="272.72727272727275" x2="90.9090909090909" y1="600" y2="700"/>
<line stroke="black" x1="909.090909090909" x2="90.9090909090909" y1="600" y2="700"/>
<line stroke="black" x1="454.5454545454545" x2="90.9090909090909" y1="600" y2="700"/>
<line stroke="black" x1="363.6363636363636" x2="90.9090909090909" y1="600" y2="700"/>
<line stroke="black" x1="636.3636363636364" x2="90.9090909090909" y1="600" y2="700"/>
<line stroke="black" x1="545.4545454545455" x2="636.3636363636364" y1="900" y2="1000"/>
<line stroke="black" x1="272.72727272727275" x2="636.3636363636364" y1="900" y2="1000"/>
<line stroke="black" x1="90.9090909090909" x2="636.3636363636364" y1="900" y2="1000"/>
<line stroke="black" x1="909.090909090909" x2="636.3636363636364" y1="900" y2="1000"/>
<line stroke="black" x1="363.6363636363636" x2="636.3636363636364" y1="900" y2="1000"/>
<line stroke="black" x1="727.2727272727273" x2="636.3636363636364" y1="900" y2="1000"/>
<line stroke="black" x1="181.8181818181818" x2="636.3636363636364" y1="900" y2="1000"/>
<line stroke="black" x1="818.1818181818181" x2="636.3636363636364" y1="900" y2="1000"/>
<line stroke="black" x1="636.3636363636364" x2="636.3636363636364" y1="900" y2="1000"/>
<line stroke="black" x1="454.5454545454545" x2="636.3636363636364" y1="900" y2="1000"/>
<line stroke="black" x1="272.72727272727275" x2="545.4545454545455" y1="900" y2="1000"/>
<line stroke="black" x1="90.9090909090909" x2="545.4545454545455" y1="900" y2="1000"/>
<line stroke="black" x1="727.2727272727273" x2="545.4545454545455" y1="900" y2="1000"/>
<line stroke="black" x1="818.1818181818181" x2="545.4545454545455" y1="900" y2="1000"/>
<line stroke="black" x1="636.3636363636364" x2="545.4545454545455" y1="900" y2="1000"/>
<line stroke="black" x1="909.090909090909" x2="545.4545454545455" y1="900" y2="1000"/>
<line stroke="black" x1="181.8181818181818" x2="545.4545454545455" y1="900" y2="1000"/>
<line stroke="black" x1="363.6363636363636" x2="545.4545454545455" y1="900" y2="1000"/>
<line stroke="black" x1="545.4545454545455" x2="545.4545454545455" y1="900" y2="1000"/>
<line stroke="black" x1="454.5454545454545" x2="545.4545454545455" y1="900" y2="1000"/>
<line stroke="black" x1="181.8181818181818" x2="363.6363636363636" y1="600" y2="700"/>
<line stroke="black" x1="545.4545454545455" x2="363.6363636363636" y1="600" y2="700"/>
<line stroke="black" x1="454.5454545454545" x2="363.6363636363636" y1="600" y2="700"/>
<line stroke="black" x1="818.1818181818181" x2="363.6363636363636" y1="600" y2="700"/>
<line stroke="black" x1="909.090909090909" x2="363.6363636363636" y1="600" y2="700"/>
<line stroke="black" x1="363.6363636363636" x2="363.6363636363636" y1="600" y2="700"/>
<line stroke="black" x1="90.9090909090909" x2="363.6363636363636" y1="600" y2="700"/>
<line stroke="black" x1="636.3636363636364" x2="363.6363636363636" y1="600" y2="700"/>
<line stroke="black" x1="727.2727272727273" x2="363.6363636363636" y1="600" y2="700"/>
<line stroke="black" x1="272.72727272727275" x2="363.6363636363636" y1="600" y2="700"/>
<line stroke="black" x1="272.72727272727275" x2="272.72727272727275" y1="200" y2="300"/>
<line stroke="black" x1="363.6363636363636" x2="272.72727272727275" y1="200" y2="300"/>
<line stroke="black" x1="181.8181818181818" x2="272.72727272727275" y1="200" y2="300"/>
<line stroke="black" x1="545.4545454545455" x2="272.72727272727275" y1="200" y2="300"/>
<line stroke="black" x1="90.9090909090909" x2="272.72727272727275" y1="200" y2="300"/>
<line stroke="black" x1="727.2727272727273" x2="272.72727272727275" y1="200" y2="300"/>
<line stroke="black" x1="909.090909090909" x2="272.72727272727275" y1="200" y2="300"/>
<line stroke="black" x1="818.1818181818181" x2="272.72727272727275" y1="200" y2="300"/>
<line stroke="black" x1="636.3636363636364" x2="272.72727272727275" y1="200" y2="300"/>
<line stroke="black" x1="454.5454545454545" x2="272.72727272727275" y1="200" y2="300"/>
<line stroke="black" x1="454.5454545454545" x2="909.090909090909" y1="400" y2="500"/>
<line stroke="black" x1="363.6363636363636" x2="909.090909090909" y1="400" y2="500"/>
<line stroke="black" x1="272.72727272727275" x2="909.090909090909" y1="400" y2="500"/>
<line stroke="black" x1="636.3636363636364" x2="909.090909090909" y1="400" y2="500"/>
<line stroke="black" x1="818.1818181818181" x2="909.090909090909" y1="400" y2="500"/>
<line stroke="black" x1="545.4545454545455" x2="909.090909090909" y1="400" y2="500"/>
<line stroke="black" x1="909.090909090909" x2="909.090909090909" y1="400" y2="500"/>
<line stroke="black" x1="727.2727272727273" x2="909.090909090909" y1="400" y2="500"/>
<line stroke="black" x1="90.9090909090909" x2="909.090909090909" y1="400" y2="500"/>
<line stroke="black" x1="181.8181818181818" x2="909.090909090909" y1="400" y2="500"/>
<line stroke="black" x1="545.4545454545455" x2="727.2727272727273" y1="200" y2="300"/>
<line stroke="black" x1="272.72727272727275" x2="727.2727272727273" y1="200" y2="300"/>
<line stroke="black" x1="181.8181818181818" x2="727.2727272727273" y1="200" y2="300"/>
<line stroke="black" x1="727.2727272727273" x2="727.2727272727273" y1="200" y2="300"/>
<line stroke="black" x1="90.9090909090909" x2="727.2727272727273" y1="200" y2="300"/>
<line stroke="black" x1="818.1818181818181" x2="727.2727272727273" y1="200" y2="300"/>
<line stroke="black" x1="636.3636363636364" x2="727.2727272727273" y1="200" y2="300"/>
<line stroke="black" x1="909.090909090909" x2="727.2727272727273" y1="200" y2="300"/>
<line stroke="black" x1="454.5454545454545" x2="727.2727272727273" y1="200" y2="300"/>
<line stroke="black" x1="363.6363636363636" x2="727.2727272727273" y1="200" y2="300"/>
<line stroke="black" x1="636.3636363636364" x2="909.090909090909" y1="300" y2="400"/>
<line stroke="black" x1="909.090909090909" x2="909.090909090909" y1="300" y2="400"/>
<line stroke="black" x1="272.72727272727275" x2="909.090909090909" y1="300" y2="400"/>
<line stroke="black" x1="727.2727272727273" x2="909.090909090909" y1="300" y2="400"/>
<line stroke="black" x1="181.8181818181818" x2="909.090909090909" y1="300" y2="400"/>
<line stroke="black" x1="545.4545454545455" x2="909.090909090909" y1="300" y2="400"/>
<line stroke="black" x1="454.5454545454545" x2="909.090909090909" y1="300" y2="400"/>
<line stroke="black" x1="90.9090909090909" x2="909.090909090909" y1="300" y2="400"/>
<line stroke="black" x1="818.1818181818181" x2="909.090909090909" y1="300" y2="400"/>
<line stroke="black" x1="363.6363636363636" x2="909.090909090909" y1="300" y2="400"/>
<line stroke="black" x1="454.5454545454545" x2="272.72727272727275" y1="900" y2="1000"/>
<line stroke="black" x1="727.2727272727273" x2="272.72727272727275" y1="900" y2="1000"/>
<line stroke="black" x1="181.8181818181818" x2="272.72727272727275" y1="900" y2="1000"/>
<line stroke="black" x1="818.1818181818181" x2="272.72727272727275" y1="900" y2="1000"/>
<line stroke="black" x1="909.090909090909" x2="272.72727272727275" y1="900" y2="1000"/>
<line stroke="black" x1="272.72727272727275" x2="272.72727272727275" y1="900" y2="1000"/>
<line stroke="black" x1="636.3636363636364" x2="272.72727272727275" y1="900" y2="1000"/>
<line stroke="black" x1="90.9090909090909" x2="272.72727272727275" y1="900" y2="1000"/>
<line stroke="black" x1="545.4545454545455" x2="272.72727272727275" y1="900" y2="1000"/>
<line stroke="black" x1="363.6363636363636" x2="272.72727272727275" y1="900" y2="1000"/>
<line stroke="black" x1="545.4545454545455" x2="909.090909090909" y1="600" y2="700"/>
<line stroke="black" x1="818.1818181818181" x2="909.090909090909" y1="600" y2="700"/>
<line stroke="black" x1="272.72727272727275" x2="909.090909090909" y1="600" y2="700"/>
<line stroke="black" x1="909.090909090909" x2="909.090909090909" y1="600" y2="700"/>
<line stroke="black" x1="454.5454545454545" x2="909.090909090909" y1="600" y2="700"/>
<line stroke="black" x1="181.8181818181818" x2="909.090909090909" y1="600" y2="700"/>
<line stroke="black" x1="636.3636363636364" x2="909.090909090909" y1="600" y2="700"/>
<line stroke="black" x1="90.9090909090909" x2="909.090909090909" y1="600" y2="700"/>
<line stroke="black" x1="727.2727272727273" x2="909.090909090909" y1="600" y2="700"/>
<line stroke="black" x1="363.6363636363636" x2="909.090909090909" y1="600" y2="700"/>
<line stroke="black" x1="818.1818181818181" x2="90.9090909090909" y1="500" y2="600"/>
<line stroke="black" x1="90.9090909090909" x2="90.9090909090909" y1="500" y2="600"/>
<line stroke="black" x1="545.4545454545455" x2="90.9090909090909" y1="500" y2="600"/>
<line stroke="black" x1="727.2727272727273" x2="90.9090909090909" y1="500" y2="600"/>
<line stroke="black" x1="636.3636363636364" x2="90.9090909090909" y1="500" y2="600"/>
<line stroke="black" x1="363.6363636363636" x2="90.9090909090909" y1="500" y2="600"/>
<line stroke="black" x1="454.5454545454545" x2="90.9090909090909" y1="500" y2="600"/>
<line stroke="black" x1="181.8181818181818" x2="90.9090909090909" y1="500" y2="600"/>
<line stroke="black" x1="909.090909090909" x2="90.9090909090909" y1="500" y2="600"/>
<line stroke="black" x1="272.72727272727275" x2="90.9090909090909" y1="500" y2="600"/>
<line stroke="black" x1="727.2727272727273" x2="727.2727272727273" y1="1000" y2="1100"/>
<line stroke="black" x1="181.8181818181818" x2="727.2727272727273" y1="1000" y2="1100"/>
<line stroke="black" x1="454.5454545454545" x2="727.2727272727273" y1="1000" y2="1100"/>
<line stroke="black" x1="545.4545454545455" x2="727.2727272727273" y1="1000" y2="1100"/>
<line stroke="black" x1="818.1818181818181" x2="727.2727272727273" y1="1000" y2="1100"/>
<line stroke="black" x1="363.6363636363636" x2="727.2727272727273" y1="1000" y2="1100"/>
<line stroke="black" x1="636.3636363636364" x2="727.2727272727273" y1="1000" y2="1100"/>
<line stroke="black" x1="272.72727272727275" x2="727.2727272727273" y1="1000" y2="1100"/>
<line stroke="black" x1="909.090909090909" x2="727.2727272727273" y1="1000" y2="1100"/>
<line stroke="black" x1="90.9090909090909" x2="727.2727272727273" y1="1000" y2="1100"/>
<line stroke="black" x1="545.4545454545455" x2="272.72727272727275" y1="1000" y2="1100"/>
<line stroke="black" x1="454.5454545454545" x2="272.72727272727275" y1="1000" y2="1100"/>
<line stroke="black" x1="636.3636363636364" x2="272.72727272727275" y1="1000" y2="1100"/>
<line stroke="black" x1="272.72727272727275" x2="272.72727272727275" y1="1000" y2="1100"/>
<line stroke="black" x1="909.090909090909" x2="272.72727272727275" y1="1000" y2="1100"/>
<line stroke="black" x1="90.9090909090909" x2="272.72727272727275" y1="1000" y2="1100"/>
<line stroke="black" x1="818.1818181818181" x2="272.72727272727275" y1="1000" y2="1100"/>
<line stroke="black" x1="363.6363636363636" x2="272.72727272727275" y1="1000" y2="1100"/>
<line stroke="black" x1="727.2727272727273" x2="272.72727272727275" y1="1000" y2="1100"/>
<line stroke="black" x1="181.8181818181818" x2="272.72727272727275" y1="1000" y2="1100"/>
<line stroke="black" x1="90.9090909090909" x2="90.9090909090909" y1="200" y2="300"/>
<line stroke="black" x1="272.72727272727275" x2="90.9090909090909" y1="200" y2="300"/>
<line stroke="black" x1="727.2727272727273" x2="90.9090909090909" y1="200" y2="300"/>
<line stroke="black" x1="363.6363636363636" x2="90.9090909090909" y1="200" y2="300"/>
<line stroke="black" x1="545.4545454545455" x2="90.9090909090909" y1="200" y2="300"/>
<line stroke="black" x1="818.1818181818181" x2="90.9090909090909" y1="200" y2="300"/>
<line stroke="black" x1="636.3636363636364" x2="90.9090909090909" y1="200" y2="300"/>
<line stroke="black" x1="909.090909090909" x2="90.9090909090909" y1="200" y2="300"/>
<line stroke="black" x1="181.8181818181818" x2="90.9090909090909" y1="200" y2="300"/>
<line stroke="black" x1="454.5454545454545" x2="90.9090909090909" y1="200" y2="300"/>
<line stroke="black" x1="909.090909090909" x2="545.4545454545455" y1="500" y2="600"/>
<line stroke="black" x1="545.4545454545455" x2="545.4545454545455" y1="500" y2="600"/>
<line stroke="black" x1="818.1818181818181" x2="545.4545454545455" y1="500" y2="600"/>
<line stroke="black" x1="272.72727272727275" x2="545.4545454545455" y1="500" y2="600"/>
<line stroke="black" x1="181.8181818181818" x2="545.4545454545455" y1="500" y2="600"/>
<line stroke="black" x1="363.6363636363636" x2="545.4545454545455" y1="500" y2="600"/>
<line stroke="black" x1="454.5454545454545" x2="545.4545454545455" y1="500" y2="600"/>
<line stroke="black" x1="90.9090909090909" x2="545.4545454545455" y1="500" y2="600"/>
<line stroke="black" x1="727.2727272727273" x2="545.4545454545455" y1="500" y2="600"/>
<line stroke="black" x1="636.3636363636364" x2="545.4545454545455" y1="500" y2="600"/>
<line stroke="black" x1="545.4545454545455" x2="818.1818181818181" y1="900" y2="1000"/>
<line stroke="black" x1="636.3636363636364" x2="818.1818181818181" y1="900" y2="1000"/>
<line stroke="black" x1="454.5454545454545" x2="818.1818181818181" y1="900" y2="1000"/>
<line stroke="black" x1="90.9090909090909" x2="818.1818181818181" y1="900" y2="1000"/>
<line stroke="black" x1="727.2727272727273" x2="818.1818181818181" y1="900" y2="1000"/>
<line stroke="black" x1="818.1818181818181" x2="818.1818181818181" y1="900" y2="1000"/>
<line stroke="black" x1="181.8181818181818" x2="818.1818181818181" y1="900" y2="1000"/>
<line stroke="black" x1="363.6363636363636" x2="818.1818181818181" y1="900" y2="1000"/>
<line stroke="black" x1="909.090909090909" x2="818.1818181818181" y1="900" y2="1000"/>
<line stroke="black" x1="272.72727272727275" x2="818.1818181818181" y1="900" y2="1000"/>
<line stroke="black" x1="454.5454545454545" x2="454.5454545454545" y1="600" y2="700"/>
<line stroke="black" x1="636.3636363636364" x2="454.5454545454545" y1="600" y2="700"/>
<line stroke="black" x1="90.9090909090909" x2="454.5454545454545" y1="600" y2="700"/>
<line stroke="black" x1="181.8181818181818" x2="454.5454545454545" y1="600" y2="700"/>
<line stroke="black" x1="545.4545454545455" x2="454.5454545454545" y1="600" y2="700"/>
<line stroke="black" x1="272.72727272727275" x2="454.5454545454545" y1="600" y2="700"/>
<line stroke="black" x1="818.1818181818181" x2="454.5454545454545" y1="600" y2="700"/>
<line stroke="black" x1="909.090909090909" x2="454.5454545454545" y1="600" y2="700"/>
<line stroke="black" x1="727.2727272727273" x2="454.5454545454545" y1="600" y2="700"/>
<line stroke="black" x1="363.6363636363636" x2="454.5454545454545" y1="600" y2="700"/>
<line stroke="black" x1="90.9090909090909" x2="636.3636363636364" y1="600" y2="700"/>
<line stroke="black" x1="636.3636363636364" x2="636.3636363636364" y1="600" y2="700"/>
<line stroke="black" x1="818.1818181818181" x2="636.3636363636364" y1="600" y2="700"/>
<line stroke="black" x1="545.4545454545455" x2="636.3636363636364" y1="600" y2="700"/>
<line stroke="black" x1="727.2727272727273" x2="636.3636363636364" y1="600" y2="700"/>
<line stroke="black" x1="363.6363636363636" x2="636.3636363636364" y1="600" y2="700"/>
<line stroke="black" x1="909.090909090909" x2="636.3636363636364" y1="600" y2="700"/>
<line stroke="black" x1="181.8181818181818" x2="636.3636363636364" y1="600" y2="700"/>
<line stroke="black" x1="454.5454545454545" x2="636.3636363636364" y1="600" y2="700"/>
<line stroke="black" x1="272.72727272727275" x2="636.3636363636364" y1="600" y2="700"/>
<line stroke="black" x1="636.3636363636364" x2="272.72727272727275" y1="600" y2="700"/>
<line stroke="black" x1="909.090909090909" x2="272.72727272727275" y1="600" y2="700"/>
<line stroke="black" x1="545.4545454545455" x2="272.72727272727275" y1="600" y2="700"/>
<line stroke="black" x1="818.1818181818181" x2="272.72727272727275" y1="600" y2="700"/>
<line stroke="black" x1="454.5454545454545" x2="272.72727272727275" y1="600" y2="700"/>
<line stroke="black" x1="272.72727272727275" x2="272.72727272727275" y1="600" y2="700"/>
<line stroke="black" x1="181.8181818181818" x2="272.72727272727275" y1="600" y2="700"/>
<line stroke="black" x1="90.9090909090909" x2="272.72727272727275" y1="600" y2="700"/>
<line stroke="black" x1="727.2727272727273" x2="272.72727272727275" y1="600" y2="700"/>
<line stroke="black" x1="363.6363636363636" x2="272.72727272727275" y1="600" y2="700"/>
<line stroke="black" x1="727.2727272727273" x2="727.2727272727273" y1="800" y2="900"/>
<line stroke="black" x1="909.090909090909" x2="727.2727272727273" y1="800" y2="900"/>
<line stroke="black" x1="272.72727272727275" x2="727.2727272727273" y1="800" y2="900"/>
<line stroke="black" x1="545.4545454545455" x2="727.2727272727273" y1="800" y2="900"/>
<line stroke="black" x1="181.8181818181818" x2="727.2727272727273" y1="800" y2="900"/>
<line stroke="black" x1="818.1818181818181" x2="727.2727272727273" y1="800" y2="900"/>
<line stroke="black" x1="454.5454545454545" x2="727.2727272727273" y1="800" y2="900"/>
<line stroke="black" x1="636.3636363636364" x2="727.2727272727273" y1="800" y2="900"/>
<line stroke="black" x1="90.9090909090909" x2="727.2727272727273" y1="800" y2="900"/>
<line stroke="black" x1="363.6363636363636" x2="727.2727272727273" y1="800" y2="900"/>
<line stroke="black" x1="545.4545454545455" x2="545.4545454545455" y1="800" y2="900"/>
<line stroke="black" x1="909.090909090909" x2="545.4545454545455" y1="800" y2="900"/>
<line stroke="black" x1="818.1818181818181" x2="545.4545454545455" y1="800" y2="900"/>
<line stroke="black" x1="90.9090909090909" x2="545.4545454545455" y1="800" y2="900"/>
<line stroke="black" x1="727.2727272727273" x2="545.4545454545455" y1="800" y2="900"/>
<line stroke="black" x1="636.3636363636364" x2="545.4545454545455" y1="800" y2="900"/>
<line stroke="black" x1="272.72727272727275" x2="545.4545454545455" y1="800" y2="900"/>
<line stroke="black" x1="454.5454545454545" x2="545.4545454545455" y1="800" y2="900"/>
<line stroke="black" x1="181.8181818181818" x2="545.4545454545455" y1="800" y2="900"/>
<line stroke="black" x1="363.6363636363636" x2="545.4545454545455" y1="800" y2="900"/>
<line stroke="black" x1="909.090909090909" x2="90.9090909090909" y1="900" y2="1000"/>
<line stroke="black" x1="636.3636363636364" x2="90.9090909090909" y1="900" y2="1000"/>
<line stroke="black" x1="90.9090909090909" x2="90.9090909090909" y1="900" y2="1000"/>
<line stroke="black" x1="181.8181818181818" x2="90.9090909090909" y1="900" y2="1000"/>
<line stroke="black" x1="727.2727272727273" x2="90.9090909090909" y1="900" y2="1000"/>
<line stroke="black" x1="363.6363636363636" x2="90.9090909090909" y1="900" y2="1000"/>
<line stroke="black" x1="272.72727272727275" x2="90.9090909090909" y1="900" y2="1000"/>
<line stroke="black" x1="545.4545454545455" x2="90.9090909090909" y1="900" y2="1000"/>
<line stroke="black" x1="454.5454545454545" x2="90.9090909090909" y1="900" y2="1000"/>
<line stroke="black" x1="818.1818181818181" x2="90.9090909090909" y1="900" y2="1000"/>
<line stroke="black" x1="363.6363636363636" x2="545.4545454545455" y1="200" y2="300"/>
<line stroke="black" x1="90.9090909090909" x2="545.4545454545455" y1="200" y2="300"/>
<line stroke="black" x1="272.72727272727275" x2="545.4545454545455" y1="200" y2="300"/>
<line stroke="black" x1="454.5454545454545" x2="545.4545454545455" y1="200" y2="300"/>
<line stroke="black" x1="909.090909090909" x2="545.4545454545455" y1="200" y2="300"/>
<line stroke="black" x1="545.4545454545455" x2="545.4545454545455" y1="200" y2="300"/>
<line stroke="black" x1="818.1818181818181" x2="545.4545454545455" y1="200" y2="300"/>
<line stroke="black" x1="181.8181818181818" x2="545.4545454545455" y1="200" y2="300"/>
<line stroke="black" x1="727.2727272727273" x2="545.4545454545455" y1="200" y2="300"/>
<line stroke="black" x1="636.3636363636364" x2="545.4545454545455" y1="200" y2="300"/>
<line stroke="black" x1="90.9090909090909" x2="727.2727272727273" y1="300" y2="400"/>
<line stroke="black" x1="272.72727272727275" x2="727.2727272727273" y1="300" y2="400"/>
<line stroke="black" x1="818.1818181818181" x2="727.2727272727273" y1="300" y2="400"/>
<line stroke="black" x1="181.8181818181818" x2="727.2727272727273" y1="300" y2="400"/>
<line stroke="black" x1="454.5454545454545" x2="727.2727272727273" y1="300" y2="400"/>
<line stroke="black" x1="727.2727272727273" x2="727.2727272727273" y1="300" y2="400"/>
<line stroke="black" x1="909.090909090909" x2="727.2727272727273" y1="300" y2="400"/>
<line stroke="black" x1="363.6363636363636" x2="727.2727272727273" y1="300" y2="400"/>
<line stroke="black" x1="636.3636363636364" x2="727.2727272727273" y1="300" y2="400"/>
<line stroke="black" x1="545.4545454545455" x2="727.2727272727273" y1="300" y2="400"/>
<line stroke="black" x1="636.3636363636364" x2="727.2727272727273" y1="500" y2="600"/>
<line stroke="black" x1="545.4545454545455" x2="727.2727272727273" y1="500" y2="600"/>
<line stroke="black" x1="727.2727272727273" x2="727.2727272727273" y1="500" y2="600"/>
<line stroke="black" x1="90.9090909090909" x2="727.2727272727273" y1="500" y2="600"/>
<line stroke="black" x1="818.1818181818181" x2="727.2727272727273" y1="500" y2="600"/>
<line stroke="black" x1="181.8181818181818" x2="727.2727272727273" y1="500" y2="600"/>
<line stroke="black" x1="272.72727272727275" x2="727.2727272727273" y1="500" y2="600"/>
<line stroke="black" x1="363.6363636363636" x2="727.2727272727273" y1="500" y2="600"/>
<line stroke="black" x1="454.5454545454545" x2="727.2727272727273" y1="500" y2="600"/>
<line stroke="black" x1="909.090909090909" x2="727.2727272727273" y1="500" y2="600"/>
<line stroke="black" x1="90.9090909090909" x2="818.1818181818181" y1="600" y2="700"/>
<line stroke="black" x1="818.1818181818181" x2="818.1818181818181" y1="600" y2="700"/>
<line stroke="black" x1="545.4545454545455" x2="818.1818181818181" y1="600" y2="700"/>
<line stroke="black" x1="454.5454545454545" x2="818.1818181818181" y1="600" y2="700"/>
<line stroke="black" x1="363.6363636363636" x2="818.1818181818181" y1="600" y2="700"/>
<line stroke="black" x1="636.3636363636364" x2="818.1818181818181" y1="600" y2="700"/>
<line stroke="black" x1="909.090909090909" x2="818.1818181818181" y1="600" y2="700"/>
<line stroke="black" x1="181.8181818181818" x2="818.1818181818181" y1="600" y2="700"/>
<line stroke="black" x1="272.72727272727275" x2="818.1818181818181" y1="600" y2="700"/>
<line stroke="black" x1="727.2727272727273" x2="818.1818181818181" y1="600" y2="700"/>
<line stroke="black" x1="545.4545454545455" x2="909.090909090909" y1="1000" y2="1100"/>
<line stroke="black" x1="272.72727272727275" x2="909.090909090909" y1="1000" y2="1100"/>
<line stroke="black" x1="181.8181818181818" x2="909.090909090909" y1="1000" y2="1100"/>
<line stroke="black" x1="909.090909090909" x2="909.090909090909" y1="1000" y2="1100"/>
<line stroke="black" x1="818.1818181818181" x2="909.090909090909" y1="1000" y2="1100"/>
<line stroke="black" x1="363.6363636363636" x2="909.090909090909" y1="1000" y2="1100"/>
<line stroke="black" x1="727.2727272727273" x2="909.090909090909" y1="1000" y2="1100"/>
<line stroke="black" x1="636.3636363636364" x2="909.090909090909" y1="1000" y2="1100"/>
<line stroke="black" x1="90.9090909090909" x2="909.090909090909" y1="1000" y2="1100"/>
<line stroke="black" x1="454.5454545454545" x2="909.090909090909" y1="1000" y2="1100"/>
<line stroke="black" x1="272.72727272727275" x2="181.8181818181818" y1="200" y2="300"/>
<line stroke="black" x1="727.2727272727273" x2="181.8181818181818" y1="200" y2="300"/>
<line stroke="black" x1="90.9090909090909" x2="181.8181818181818" y1="200" y2="300"/>
<line stroke="black" x1="545.4545454545455" x2="181.8181818181818" y1="200" y2="300"/>
<line stroke="black" x1="181.8181818181818" x2="181.8181818181818" y1="200" y2="300"/>
<line stroke="black" x1="454.5454545454545" x2="181.8181818181818" y1="200" y2="300"/>
<line stroke="black" x1="818.1818181818181" x2="181.8181818181818" y1="200" y2="300"/>
<line stroke="black" x1="363.6363636363636" x2="181.8181818181818" y1="200" y2="300"/>
<line stroke="black" x1="636.3636363636364" x2="181.8181818181818" y1="200" y2="300"/>
<line stroke="black" x1="909.090909090909" x2="181.8181818181818" y1="200" y2="300"/>
<line stroke="black" x1="727.2727272727273" x2="363.6363636363636" y1="900" y2="1000"/>
<line stroke="black" x1="454.5454545454545" x2="363.6363636363636" y1="900" y2="1000"/>
<line stroke="black" x1="181.8181818181818" x2="363.6363636363636" y1="900" y2="1000"/>
<line stroke="black" x1="636.3636363636364" x2="363.6363636363636" y1="900" y2="1000"/>
<line stroke="black" x1="818.1818181818181" x2="363.6363636363636" y1="900" y2="1000"/>
<line stroke="black" x1="545.4545454545455" x2="363.6363636363636" y1="900" y2="1000"/>
<line stroke="black" x1="363.6363636363636" x2="363.6363636363636" y1="900" y2="1000"/>
<line stroke="black" x1="90.9090909090909" x2="363.6363636363636" y1="900" y2="1000"/>
<line stroke="black" x1="909.090909090909" x2="363.6363636363636" y1="900" y2="1000"/>
<line stroke="black" x1="272.72727272727275" x2="363.6363636363636" y1="900" y2="1000"/>
<line stroke="black" x1="363.6363636363636" x2="272.72727272727275" y1="300" y2="400"/>
<line stroke="black" x1="90.9090909090909" x2="272.72727272727275" y1="300" y2="400"/>
<line stroke="black" x1="909.090909090909" x2="272.72727272727275" y1="300" y2="400"/>
<line stroke="black" x1="454.5454545454545" x2="272.72727272727275" y1="300" y2="400"/>
<line stroke="black" x1="272.72727272727275" x2="272.72727272727275" y1="300" y2="400"/>
<line stroke="black" x1="545.4545454545455" x2="272.72727272727275" y1="300" y2="400"/>
<line stroke="black" x1="727.2727272727273" x2="272.72727272727275" y1="300" y2="400"/>
<line stroke="black" x1="636.3636363636364" x2="272.72727272727275" y1="300" y2="400"/>
<line stroke="black" x1="181.8181818181818" x2="272.72727272727275" y1="300" y2="400"/>
<line stroke="black" x1="818.1818181818181" x2="272.72727272727275" y1="300" y2="400"/>
<line stroke="black" x1="90.9090909090909" x2="454.5454545454545" y1="900" y2="1000"/>
<line stroke="black" x1="363.6363636363636" x2="454.5454545454545" y1="900" y2="1000"/>
<line stroke="black" x1="818.1818181818181" x2="454.5454545454545" y1="900" y2="1000"/>
<line stroke="black" x1="454.5454545454545" x2="454.5454545454545" y1="900" y2="1000"/>
<line stroke="black" x1="909.090909090909" x2="454.5454545454545" y1="900" y2="1000"/>
<line stroke="black" x1="545.4545454545455" x2="454.5454545454545" y1="900" y2="1000"/>
<line stroke="black" x1="272.72727272727275" x2="454.5454545454545" y1="900" y2="1000"/>
<line stroke="black" x1="727.2727272727273" x2="454.5454545454545" y1="900" y2="1000"/>
<line stroke="black" x1="636.3636363636364" x2="454.5454545454545" y1="900" y2="1000"/>
<line stroke="black" x1="181.8181818181818" x2="454.5454545454545" y1="900" y2="1000"/>
<line stroke="black" x1="636.3636363636364" x2="545.4545454545455" y1="1000" y2="1100"/>
<line stroke="black" x1="454.5454545454545" x2="545.4545454545455" y1="1000" y2="1100"/>
<line stroke="black" x1="545.4545454545455" x2="545.4545454545455" y1="1000" y2="1100"/>
<line stroke="black" x1="818.1818181818181" x2="545.4545454545455" y1="1000" y2="1100"/>
<line stroke="black" x1="90.9090909090909" x2="545.4545454545455" y1="1000" y2="1100"/>
<line stroke="black" x1="181.8181818181818" x2="545.4545454545455" y1="1000" y2="1100"/>
<line stroke="black" x1="909.090909090909" x2="545.4545454545455" y1="1000" y2="1100"/>
<line stroke="black" x1="363.6363636363636" x2="545.4545454545455" y1="1000" y2="1100"/>
<line stroke="black" x1="272.72727272727275" x2="545.4545454545455" y1="1000" y2="1100"/>
<line stroke="black" x1="727.2727272727273" x2="545.4545454545455" y1="1000" y2="1100"/>
<line stroke="black" x1="272.72727272727275" x2="90.9090909090909" y1="1000" y2="1100"/>
<line stroke="black" x1="727.2727272727273" x2="90.9090909090909" y1="1000" y2="1100"/>
<line stroke="black" x1="90.9090909090909" x2="90.9090909090909" y1="1000" y2="1100"/>
<line stroke="black" x1="363.6363636363636" x2="90.9090909090909" y1="1000" y2="1100"/>
<line stroke="black" x1="909.090909090909" x2="90.9090909090909" y1="1000" y2="1100"/>
<line stroke="black" x1="454.5454545454545" x2="90.9090909090909" y1="1000" y2="1100"/>
<line stroke="black" x1="818.1818181818181" x2="90.9090909090909" y1="1000" y2="1100"/>
<line stroke="black" x1="636.3636363636364" x2="90.9090909090909" y1="1000" y2="1100"/>
<line stroke="black" x1="181.8181818181818" x2="90.9090909090909" y1="1000" y2="1100"/>
<line stroke="black" x1="545.4545454545455" x2="90.9090909090909" y1="1000" y2="1100"/>
<line stroke="black" x1="909.090909090909" x2="636.3636363636364" y1="200" y2="300"/>
<line stroke="black" x1="181.8181818181818" x2="636.3636363636364" y1="200" y2="300"/>
<line stroke="black" x1="90.9090909090909" x2="636.3636363636364" y1="200" y2="300"/>
<line stroke="black" x1="818.1818181818181" x2="636.3636363636364" y1="200" y2="300"/>
<line stroke="black" x1="636.3636363636364" x2="636.3636363636364" y1="200" y2="300"/>
<line stroke="black" x1="272.72727272727275" x2="636.3636363636364" y1="200" y2="300"/>
<line stroke="black" x1="545.4545454545455" x2="636.3636363636364" y1="200" y2="300"/>
<line stroke="black" x1="727.2727272727273" x2="636.3636363636364" y1="200" y2="300"/>
<line stroke="black" x1="363.6363636363636" x2="636.3636363636364" y1="200" y2="300"/>
<line stroke="black" x1="454.5454545454545" x2="636.3636363636364" y1="200" y2="300"/>
<line stroke="black" x1="727.2727272727273" x2="909.090909090909" y1="500" y2="600"/>
<line stroke="black" x1="909.090909090909" x2="909.090909090909" y1="500" y2="600"/>
<line stroke="black" x1="363.6363636363636" x2="909.090909090909" y1="500" y2="600"/>
<line stroke="black" x1="90.9090909090909" x2="909.090909090909" y1="500" y2="600"/>
<line stroke="black" x1="181.8181818181818" x2="909.090909090909" y1="500" y2="600"/>
<line stroke="black" x1="636.3636363636364" x2="909.090909090909" y1="500" y2="600"/>
<line stroke="black" x1="545.4545454545455" x2="909.090909090909" y1="500" y2="600"/>
<line stroke="black" x1="272.72727272727275" x2="909.090909090909" y1="500" y2="600"/>
<line stroke="black" x1="454.5454545454545" x2="909.090909090909" y1="500" y2="600"/>
<line stroke="black" x1="818.1818181818181" x2="909.090909090909" y1="500" y2="600"/>
<line stroke="black" x1="909.090909090909" x2="181.8181818181818" y1="600" y2="700"/>
<line stroke="black" x1="727.2727272727273" x2="181.8181818181818" y1="600" y2="700"/>
<line stroke="black" x1="181.8181818181818" x2="181.8181818181818" y1="600" y2="700"/>
<line stroke="black" x1="90.9090909090909" x2="181.8181818181818" y1="600" y2="700"/>
<line stroke="black" x1="545.4545454545455" x2="181.8181818181818" y1="600" y2="700"/>
<line stroke="black" x1="363.6363636363636" x2="181.8181818181818" y1="600" y2="700"/>
<line stroke="black" x1="818.1818181818181" x2="181.8181818181818" y1="600" y2="700"/>
<line stroke="black" x1="454.5454545454545" x2="181.8181818181818" y1="600" y2="700"/>
<line stroke="black" x1="636.3636363636364" x2="181.8181818181818" y1="600" y2="700"/>
<line stroke="black" x1="272.72727272727275" x2="181.8181818181818" y1="600" y2="700"/>
<line stroke="black" x1="818.1818181818181" x2="636.3636363636364" y1="500" y2="600"/>
<line stroke="black" x1="181.8181818181818" x2="636.3636363636364" y1="500" y2="600"/>
<line stroke="black" x1="363.6363636363636" x2="636.3636363636364" y1="500" y2="600"/>
<line stroke="black" x1="454.5454545454545" x2="636.3636363636364" y1="500" y2="600"/>
<line stroke="black" x1="636.3636363636364" x2="636.3636363636364" y1="500" y2="600"/>
<line stroke="black" x1="909.090909090909" x2="636.3636363636364" y1="500" y2="600"/>
<line stroke="black" x1="727.2727272727273" x2="636.3636363636364" y1="500" y2="600"/>
<line stroke="black" x1="90.9090909090909" x2="636.3636363636364" y1="500" y2="600"/>
<line stroke="black" x1="272.72727272727275" x2="636.3636363636364" y1="500" y2="600"/>
<line stroke="black" x1="545.4545454545455" x2="636.3636363636364" y1="500" y2="600"/>
<line stroke="black" x1="363.6363636363636" x2="818.1818181818181" y1="300" y2="400"/>
<line stroke="black" x1="818.1818181818181" x2="818.1818181818181" y1="300" y2="400"/>
<line stroke="black" x1="727.2727272727273" x2="818.1818181818181" y1="300" y2="400"/>
<line stroke="black" x1="454.5454545454545" x2="818.1818181818181" y1="300" y2="400"/>
<line stroke="black" x1="272.72727272727275" x2="818.1818181818181" y1="300" y2="400"/>
<line stroke="black" x1="90.9090909090909" x2="818.1818181818181" y1="300" y2="400"/>
<line stroke="black" x1="909.090909090909" x2="818.1818181818181" y1="300" y2="400"/>
<line stroke="black" x1="636.3636363636364" x2="818.1818181818181" y1="300" y2="400"/>
<line stroke="black" x1="545.4545454545455" x2="818.1818181818181" y1="300" y2="400"/>
<line stroke="black" x1="181.8181818181818" x2="818.1818181818181" y1="300" y2="400"/>
<line stroke="black" x1="90.9090909090909" x2="727.2727272727273" y1="400" y2="500"/>
<line stroke="black" x1="636.3636363636364" x2="727.2727272727273" y1="400" y2="500"/>
<line stroke="black" x1="181.8181818181818" x2="727.2727272727273" y1="400" y2="500"/>
<line stroke="black" x1="727.2727272727273" x2="727.2727272727273" y1="400" y2="500"/>
<line stroke="black" x1="545.4545454545455" x2="727.2727272727273" y1="400" y2="500"/>
<line stroke="black" x1="818.1818181818181" x2="727.2727272727273" y1="400" y2="500"/>
<line stroke="black" x1="909.090909090909" x2="727.2727272727273" y1="400" y2="500"/>
<line stroke="black" x1="454.5454545454545" x2="727.2727272727273" y1="400" y2="500"/>
<line stroke="black" x1="363.6363636363636" x2="727.2727272727273" y1="400" y2="500"/>
<line stroke="black" x1="272.72727272727275" x2="727.2727272727273" y1="400" y2="500"/>
<line stroke="black" x1="454.5454545454545" x2="636.3636363636364" y1="700" y2="800"/>
<line stroke="black" x1="181.8181818181818" x2="636.3636363636364" y1="700" y2="800"/>
<line stroke="black" x1="909.090909090909" x2="636.3636363636364" y1="700" y2="800"/>
<line stroke="black" x1="363.6363636363636" x2="636.3636363636364" y1="700" y2="800"/>
<line stroke="black" x1="818.1818181818181" x2="636.3636363636364" y1="700" y2="800"/>
<line stroke="black" x1="727.2727272727273" x2="636.3636363636364" y1="700" y2="800"/>
<line stroke="black" x1="636.3636363636364" x2="636.3636363636364" y1="700" y2="800"/>
<line stroke="black" x1="272.72727272727275" x2="636.3636363636364" y1="700" y2="800"/>
<line stroke="black" x1="545.4545454545455" x2="636.3636363636364" y1="700" y2="800"/>
<line stroke="black" x1="90.9090909090909" x2="636.3636363636364" y1="700" y2="800"/>
<line stroke="black" x1="545.4545454545455" x2="818.1818181818181" y1="800" y2="900"/>
<line stroke="black" x1="363.6363636363636" x2="818.1818181818181" y1="800" y2="900"/>
<line stroke="black" x1="272.72727272727275" x2="818.1818181818181" y1="800" y2="900"/>
<line stroke="black" x1="909.090909090909" x2="818.1818181818181" y1="800" y2="900"/>
<line stroke="black" x1="454.5454545454545" x2="818.1818181818181" y1="800" y2="900"/>
<line stroke="black" x1="90.9090909090909" x2="818.1818181818181" y1="800" y2="900"/>
<line stroke="black" x1="636.3636363636364" x2="818.1818181818181" y1="800" y2="900"/>
<line stroke="black" x1="727.2727272727273" x2="818.1818181818181" y1="800" y2="900"/>
<line stroke="black" x1="818.1818181818181" x2="818.1818181818181" y1="800" y2="900"/>
<line stroke="black" x1="181.8181818181818" x2="818.1818181818181" y1="800" y2="900"/>
<line stroke="black" x1="909.090909090909" x2="636.3636363636364" y1="300" y2="400"/>
<line stroke="black" x1="181.8181818181818" x2="636.3636363636364" y1="300" y2="400"/>
<line stroke="black" x1="727.2727272727273" x2="636.3636363636364" y1="300" y2="400"/>
<line stroke="black" x1="818.1818181818181" x2="636.3636363636364" y1="300" y2="400"/>
<line stroke="black" x1="363.6363636363636" x2="636.3636363636364" y1="300" y2="400"/>
<line stroke="black" x1="454.5454545454545" x2="636.3636363636364" y1="300" y2="400"/>
<line stroke="black" x1="636.3636363636364" x2="636.3636363636364" y1="300" y2="400"/>
<line stroke="black" x1="272.72727272727275" x2="636.3636363636364" y1="300" y2="400"/>
<line stroke="black" x1="545.4545454545455" x2="636.3636363636364" y1="300" y2="400"/>
<line stroke="black" x1="90.9090909090909" x2="636.3636363636364" y1="300" y2="400"/>
<line stroke="black" x1="363.6363636363636" x2="272.72727272727275" y1="400" y2="500"/>
<line stroke="black" x1="272.72727272727275" x2="272.72727272727275" y1="400" y2="500"/>
<line stroke="black" x1="454.5454545454545" x2="272.72727272727275" y1="400" y2="500"/>
<line stroke="black" x1="545.4545454545455" x2="272.72727272727275" y1="400" y2="500"/>
<line stroke="black" x1="727.2727272727273" x2="272.72727272727275" y1="400" y2="500"/>
<line stroke="black" x1="636.3636363636364" x2="272.72727272727275" y1="400" y2="500"/>
<line stroke="black" x1="909.090909090909" x2="272.72727272727275" y1="400" y2="500"/>
<line stroke="black" x1="181.8181818181818" x2="272.72727272727275" y1="400" y2="500"/>
<line stroke="black" x1="818.1818181818181" x2="272.72727272727275" y1="400" y2="500"/>
<line stroke="black" x1="90.9090909090909" x2="272.72727272727275" y1="400" y2="500"/>
<line stroke="black" x1="181.8181818181818" x2="363.6363636363636" y1="700" y2="800"/>
<line stroke="black" x1="363.6363636363636" x2="363.6363636363636" y1="700" y2="800"/>
<line stroke="black" x1="727.2727272727273" x2="363.6363636363636" y1="700" y2="800"/>
<line stroke="black" x1="909.090909090909" x2="363.6363636363636" y1="700" y2="800"/>
<line stroke="black" x1="454.5454545454545" x2="363.6363636363636" y1="700" y2="800"/>
<line stroke="black" x1="636.3636363636364" x2="363.6363636363636" y1="700" y2="800"/>
<line stroke="black" x1="545.4545454545455" x2="363.6363636363636" y1="700" y2="800"/>
<line stroke="black" x1="90.9090909090909" x2="363.6363636363636" y1="700" y2="800"/>
<line stroke="black" x1="272.72727272727275" x2="363.6363636363636" y1="700" y2="800"/>
<line stroke="black" x1="818.1818181818181" x2="363.6363636363636" y1="700" y2="800"/>
<line stroke="black" x1="363.6363636363636" x2="818.1818181818181" y1="200" y2="300"/>
<line stroke="black" x1="727.2727272727273" x2="818.1818181818181" y1="200" y2="300"/>
<line stroke="black" x1="181.8181818181818" x2="818.1818181818181" y1="200" y2="300"/>
<line stroke="black" x1="636.3636363636364" x2="818.1818181818181" y1="200" y2="300"/>
<line stroke="black" x1="454.5454545454545" x2="818.1818181818181" y1="200" y2="300"/>
<line stroke="black" x1="818.1818181818181" x2="818.1818181818181" y1="200" y2="300"/>
<line stroke="black" x1="272.72727272727275" x2="818.1818181818181" y1="200" y2="300"/>
<line stroke="black" x1="909.090909090909" x2="818.1818181818181" y1="200" y2="300"/>
<line stroke="black" x1="90.9090909090909" x2="818.1818181818181" y1="200" y2="300"/>
<line stroke="black" x1="545.4545454545455" x2="818.1818181818181" y1="200" y2="300"/>
<circle cx="545.4545454545455" cy="800" fill="red" r="20"/>
<text fill="white" font-family="Arial" font-size="15" text-anchor="middle" x="545.4545454545455" y="805">
65
</text>
<circle cx="818.1818181818181" cy="500" fill="blue" r="20"/>
<text fill="white" font-family="Arial" font-size="15" text-anchor="middle" x="818.1818181818181" y="505">
34
</text>
<circle cx="727.2727272727273" cy="300" fill="blue" r="20"/>
<text fill="white" font-family="Arial" font-size="15" text-anchor="middle" x="727.2727272727273" y="305">
16
</text>
<circle cx="454.5454545454545" cy="400" fill="red" r="20"/>
<text fill="white" font-family="Arial" font-size="15" text-anchor="middle" x="454.5454545454545" y="405">
27
</text>
<circle cx="636.3636363636364" cy="200" fill="red" r="20"/>
<text fill="white" font-family="Arial" font-size="15" text-anchor="middle" x="636.3636363636364" y="205">
7
</text>
<circle cx="272.72727272727275" cy="400" fill="blue" r="20"/>
<text fill="white" font-family="Arial" font-size="15" text-anchor="middle" x="272.72727272727275" y="405">
24
</text>
<circle cx="727.2727272727273" cy="1100" fill="red" r="20"/>
<text fill="white" font-family="Arial" font-size="15" text-anchor="middle" x="727.2727272727273" y="1105">
93
</text>
<circle cx="181.8181818181818" cy="600" fill="blue" r="20"/>
<text fill="white" font-family="Arial" font-size="15" text-anchor="middle" x="181.8181818181818" y="605">
48
</text>
<circle cx="909.090909090909" cy="300" fill="blue" r="20"/>
<text fill="white" font-family="Arial" font-size="15" text-anchor="middle" x="909.090909090909" y="305">
12
</text>
<circle cx="727.2727272727273" cy="200" fill="red" r="20"/>
<text fill="white" font-family="Arial" font-size="15" text-anchor="middle" x="727.2727272727273" y="205">
3
</text>
<circle cx="181.8181818181818" cy="1100" fill="red" r="20"/>
<text fill="white" font-family="Arial" font-size="15" text-anchor="middle" x="181.8181818181818" y="1105">
97
</text>
<circle cx="454.5454545454545" cy="500" fill="blue" r="20"/>
<text fill="white" font-family="Arial" font-size="15" text-anchor="middle" x="454.5454545454545" y="505">
32
</text>
<circle cx="545.4545454545455" cy="600" fill="blue" r="20"/>
<text fill="white" font-family="Arial" font-size="15" text-anchor="middle" x="545.4545454545455" y="605">
40
</text>
<circle cx="636.3636363636364" cy="1100" fill="red" r="20"/>
<text fill="white" font-family="Arial" font-size="15" text-anchor="middle" x="636.3636363636364" y="1105">
99
</text>
<circle cx="272.72727272727275" cy="600" fill="red" r="20"/>
<text fill="white" font-family="Arial" font-size="15" text-anchor="middle" x="272.72727272727275" y="605">
43
</text>
<circle cx="636.3636363636364" cy="700" fill="red" r="20"/>
<text fill="white" font-family="Arial" font-size="15" text-anchor="middle" x="636.3636363636364" y="705">
55
</text>
<circle cx="272.72727272727275" cy="900" fill="red" r="20"/>
<text fill="white" font-family="Arial" font-size="15" text-anchor="middle" x="272.72727272727275" y="905">
79
</text>
<circle cx="272.72727272727275" cy="200" fill="blue" r="20"/>
<text fill="white" font-family="Arial" font-size="15" text-anchor="middle" x="272.72727272727275" y="205">
2
</text>
<circle cx="454.5454545454545" cy="900" fill="blue" r="20"/>
<text fill="white" font-family="Arial" font-size="15" text-anchor="middle" x="454.5454545454545" y="905">
70
</text>
<circle cx="545.4545454545455" cy="900" fill="red" r="20"/>
<text fill="white" font-family="Arial" font-size="15" text-anchor="middle" x="545.4545454545455" y="905">
77
</text>
<circle cx="454.5454545454545" cy="200" fill="red" r="20"/>
<text fill="white" font-family="Arial" font-size="15" text-anchor="middle" x="454.5454545454545" y="205">
9
</text>
<circle cx="909.090909090909" cy="1100" fill="blue" r="20"/>
<text fill="white" font-family="Arial" font-size="15" text-anchor="middle" x="909.090909090909" y="1105">
94
</text>
<circle cx="454.5454545454545" cy="1100" fill="red" r="20"/>
<text fill="white" font-family="Arial" font-size="15" text-anchor="middle" x="454.5454545454545" y="1105">
91
</text>
<circle cx="636.3636363636364" cy="500" fill="red" r="20"/>
<text fill="white" font-family="Arial" font-size="15" text-anchor="middle" x="636.3636363636364" y="505">
35
</text>
<circle cx="90.9090909090909" cy="1000" fill="red" r="20"/>
<text fill="white" font-family="Arial" font-size="15" text-anchor="middle" x="90.9090909090909" y="1005">
87
</text>
<circle cx="90.9090909090909" cy="200" fill="blue" r="20"/>
<text fill="white" font-family="Arial" font-size="15" text-anchor="middle" x="90.9090909090909" y="205">
4
</text>
<circle cx="181.8181818181818" cy="900" fill="red" r="20"/>
<text fill="white" font-family="Arial" font-size="15" text-anchor="middle" x="181.8181818181818" y="905">
71
</text>
<circle cx="454.5454545454545" cy="800" fill="red" r="20"/>
<text fill="white" font-family="Arial" font-size="15" text-anchor="middle" x="454.5454545454545" y="805">
67
</text>
<circle cx="181.8181818181818" cy="700" fill="red" r="20"/>
<text fill="white" font-family="Arial" font-size="15" text-anchor="middle" x="181.8181818181818" y="705">
53
</text>
<circle cx="545.4545454545455" cy="700" fill="red" r="20"/>
<text fill="white" font-family="Arial" font-size="15" text-anchor="middle" x="545.4545454545455" y="705">
51
</text>
<circle cx="181.8181818181818" cy="800" fill="blue" r="20"/>
<text fill="white" font-family="Arial" font-size="15" text-anchor="middle" x="181.8181818181818" y="805">
60
</text>
<circle cx="727.2727272727273" cy="700" fill="blue" r="20"/>
<text fill="white" font-family="Arial" font-size="15" text-anchor="middle" x="727.2727272727273" y="705">
52
</text>
<circle cx="454.5454545454545" cy="1000" fill="red" r="20"/>
<text fill="white" font-family="Arial" font-size="15" text-anchor="middle" x="454.5454545454545" y="1005">
89
</text>
<circle cx="363.6363636363636" cy="200" fill="blue" r="20"/>
<text fill="white" font-family="Arial" font-size="15" text-anchor="middle" x="363.6363636363636" y="205">
0
</text>
<circle cx="636.3636363636364" cy="400" fill="red" r="20"/>
<text fill="white" font-family="Arial" font-size="15" text-anchor="middle" x="636.3636363636364" y="405">
29
</text>
<circle cx="90.9090909090909" cy="400" fill="blue" r="20"/>
<text fill="white" font-family="Arial" font-size="15" text-anchor="middle" x="90.9090909090909" y="405">
26
</text>
<circle cx="363.6363636363636" cy="600" fill="red" r="20"/>
<text fill="white" font-family="Arial" font-size="15" text-anchor="middle" x="363.6363636363636" y="605">
41
</text>
<circle cx="272.72727272727275" cy="500" fill="blue" r="20"/>
<text fill="white" font-family="Arial" font-size="15" text-anchor="middle" x="272.72727272727275" y="505">
38
</text>
<circle cx="545.4545454545455" cy="400" fill="blue" r="20"/>
<text fill="white" font-family="Arial" font-size="15" text-anchor="middle" x="545.4545454545455" y="405">
22
</text>
<circle cx="272.72727272727275" cy="300" fill="blue" r="20"/>
<text fill="white" font-family="Arial" font-size="15" text-anchor="middle" x="272.72727272727275" y="305">
14
</text>
<circle cx="90.9090909090909" cy="900" fill="red" r="20"/>
<text fill="white" font-family="Arial" font-size="15" text-anchor="middle" x="90.9090909090909" y="905">
73
</text>
<circle cx="272.72727272727275" cy="1100" fill="blue" r="20"/>
<text fill="white" font-family="Arial" font-size="15" text-anchor="middle" x="272.72727272727275" y="1105">
98
</text>
<circle cx="181.8181818181818" cy="400" fill="blue" r="20"/>
<text fill="white" font-family="Arial" font-size="15" text-anchor="middle" x="181.8181818181818" y="405">
28
</text>
<circle cx="272.72727272727275" cy="1000" fill="red" r="20"/>
<text fill="white" font-family="Arial" font-size="15" text-anchor="middle" x="272.72727272727275" y="1005">
81
</text>
<circle cx="363.6363636363636" cy="700" fill="blue" r="20"/>
<text fill="white" font-family="Arial" font-size="15" text-anchor="middle" x="363.6363636363636" y="705">
54
</text>
<circle cx="181.8181818181818" cy="500" fill="red" r="20"/>
<text fill="white" font-family="Arial" font-size="15" text-anchor="middle" x="181.8181818181818" y="505">
31
</text>
<circle cx="90.9090909090909" cy="700" fill="red" r="20"/>
<text fill="white" font-family="Arial" font-size="15" text-anchor="middle" x="90.9090909090909" y="705">
59
</text>
<circle cx="727.2727272727273" cy="600" fill="red" r="20"/>
<text fill="white" font-family="Arial" font-size="15" text-anchor="middle" x="727.2727272727273" y="605">
49
</text>
<circle cx="818.1818181818181" cy="1000" fill="blue" r="20"/>
<text fill="white" font-family="Arial" font-size="15" text-anchor="middle" x="818.1818181818181" y="1005">
80
</text>
<circle cx="636.3636363636364" cy="1000" fill="red" r="20"/>
<text fill="white" font-family="Arial" font-size="15" text-anchor="middle" x="636.3636363636364" y="1005">
83
</text>
<circle cx="818.1818181818181" cy="400" fill="red" r="20"/>
<text fill="white" font-family="Arial" font-size="15" text-anchor="middle" x="818.1818181818181" y="405">
21
</text>
<circle cx="363.6363636363636" cy="400" fill="red" r="20"/>
<text fill="white" font-family="Arial" font-size="15" text-anchor="middle" x="363.6363636363636" y="405">
25
</text>
<circle cx="363.6363636363636" cy="900" fill="blue" r="20"/>
<text fill="white" font-family="Arial" font-size="15" text-anchor="middle" x="363.6363636363636" y="905">
78
</text>
<circle cx="909.090909090909" cy="700" fill="blue" r="20"/>
<text fill="white" font-family="Arial" font-size="15" text-anchor="middle" x="909.090909090909" y="705">
56
</text>
<circle cx="545.4545454545455" cy="1100" fill="blue" r="20"/>
<text fill="white" font-family="Arial" font-size="15" text-anchor="middle" x="545.4545454545455" y="1105">
92
</text>
<circle cx="909.090909090909" cy="400" fill="red" r="20"/>
<text fill="white" font-family="Arial" font-size="15" text-anchor="middle" x="909.090909090909" y="405">
23
</text>
<circle cx="272.72727272727275" cy="800" fill="blue" r="20"/>
<text fill="white" font-family="Arial" font-size="15" text-anchor="middle" x="272.72727272727275" y="805">
66
</text>
<circle cx="909.090909090909" cy="200" fill="red" r="20"/>
<text fill="white" font-family="Arial" font-size="15" text-anchor="middle" x="909.090909090909" y="205">
1
</text>
<circle cx="727.2727272727273" cy="800" fill="blue" r="20"/>
<text fill="white" font-family="Arial" font-size="15" text-anchor="middle" x="727.2727272727273" y="805">
62
</text>
<circle cx="727.2727272727273" cy="400" fill="blue" r="20"/>
<text fill="white" font-family="Arial" font-size="15" text-anchor="middle" x="727.2727272727273" y="405">
20
</text>
<circle cx="181.8181818181818" cy="300" fill="red" r="20"/>
<text fill="white" font-family="Arial" font-size="15" text-anchor="middle" x="181.8181818181818" y="305">
19
</text>
<circle cx="90.9090909090909" cy="300" fill="red" r="20"/>
<text fill="white" font-family="Arial" font-size="15" text-anchor="middle" x="90.9090909090909" y="305">
11
</text>
<circle cx="818.1818181818181" cy="900" fill="blue" r="20"/>
<text fill="white" font-family="Arial" font-size="15" text-anchor="middle" x="818.1818181818181" y="905">
74
</text>
<circle cx="545.4545454545455" cy="300" fill="red" r="20"/>
<text fill="white" font-family="Arial" font-size="15" text-anchor="middle" x="545.4545454545455" y="305">
15
</text>
<circle cx="636.3636363636364" cy="800" fill="red" r="20"/>
<text fill="white" font-family="Arial" font-size="15" text-anchor="middle" x="636.3636363636364" y="805">
63
</text>
<circle cx="90.9090909090909" cy="800" fill="red" r="20"/>
<text fill="white" font-family="Arial" font-size="15" text-anchor="middle" x="90.9090909090909" y="805">
69
</text>
<circle cx="909.090909090909" cy="900" fill="blue" r="20"/>
<text fill="white" font-family="Arial" font-size="15" text-anchor="middle" x="909.090909090909" y="905">
72
</text>
<circle cx="909.090909090909" cy="600" fill="red" r="20"/>
<text fill="white" font-family="Arial" font-size="15" text-anchor="middle" x="909.090909090909" y="605">
47
</text>
<circle cx="90.9090909090909" cy="1100" fill="red" r="20"/>
<text fill="white" font-family="Arial" font-size="15" text-anchor="middle" x="90.9090909090909" y="1105">
95
</text>
<circle cx="90.9090909090909" cy="500" fill="red" r="20"/>
<text fill="white" font-family="Arial" font-size="15" text-anchor="middle" x="90.9090909090909" y="505">
33
</text>
<circle cx="636.3636363636364" cy="900" fill="red" r="20"/>
<text fill="white" font-family="Arial" font-size="15" text-anchor="middle" x="636.3636363636364" y="905">
75
</text>
<circle cx="454.5454545454545" cy="700" fill="blue" r="20"/>
<text fill="white" font-family="Arial" font-size="15" text-anchor="middle" x="454.5454545454545" y="705">
58
</text>
<circle cx="818.1818181818181" cy="700" fill="blue" r="20"/>
<text fill="white" font-family="Arial" font-size="15" text-anchor="middle" x="818.1818181818181" y="705">
50
</text>
<circle cx="363.6363636363636" cy="500" fill="blue" r="20"/>
<text fill="white" font-family="Arial" font-size="15" text-anchor="middle" x="363.6363636363636" y="505">
30
</text>
<circle cx="363.6363636363636" cy="800" fill="red" r="20"/>
<text fill="white" font-family="Arial" font-size="15" text-anchor="middle" x="363.6363636363636" y="805">
61
</text>
<circle cx="909.090909090909" cy="1000" fill="red" r="20"/>
<text fill="white" font-family="Arial" font-size="15" text-anchor="middle" x="909.090909090909" y="1005">
85
</text>
<circle cx="909.090909090909" cy="800" fill="blue" r="20"/>
<text fill="white" font-family="Arial" font-size="15" text-anchor="middle" x="909.090909090909" y="805">
64
</text>
<circle cx="181.8181818181818" cy="1000" fill="blue" r="20"/>
<text fill="white" font-family="Arial" font-size="15" text-anchor="middle" x="181.8181818181818" y="1005">
88
</text>
<circle cx="454.5454545454545" cy="300" fill="blue" r="20"/>
<text fill="white" font-family="Arial" font-size="15" text-anchor="middle" x="454.5454545454545" y="305">
10
</text>
<circle cx="636.3636363636364" cy="300" fill="red" r="20"/>
<text fill="white" font-family="Arial" font-size="15" text-anchor="middle" x="636.3636363636364" y="305">
13
</text>
<circle cx="818.1818181818181" cy="300" fill="blue" r="20"/>
<text fill="white" font-family="Arial" font-size="15" text-anchor="middle" x="818.1818181818181" y="305">
18
</text>
<circle cx="181.8181818181818" cy="200" fill="blue" r="20"/>
<text fill="white" font-family="Arial" font-size="15" text-anchor="middle" x="181.8181818181818" y="205">
8
</text>
<circle cx="818.1818181818181" cy="600" fill="blue" r="20"/>
<text fill="white" font-family="Arial" font-size="15" text-anchor="middle" x="818.1818181818181" y="605">
46
</text>
<circle cx="545.4545454545455" cy="200" fill="red" r="20"/>
<text fill="white" font-family="Arial" font-size="15" text-anchor="middle" x="545.4545454545455" y="205">
5
</text>
<circle cx="818.1818181818181" cy="200" fill="blue" r="20"/>
<text fill="white" font-family="Arial" font-size="15" text-anchor="middle" x="818.1818181818181" y="205">
6
</text>
<circle cx="727.2727272727273" cy="500" fill="red" r="20"/>
<text fill="white" font-family="Arial" font-size="15" text-anchor="middle" x="727.2727272727273" y="505">
39
</text>
<circle cx="363.6363636363636" cy="1100" fill="blue" r="20"/>
<text fill="white" font-family="Arial" font-size="15" text-anchor="middle" x="363.6363636363636" y="1105">
90
</text>
<circle cx="818.1818181818181" cy="1100" fill="blue" r="20"/>
<text fill="white" font-family="Arial" font-size="15" text-anchor="middle" x="818.1818181818181" y="1105">
96
</text>
<circle cx="727.2727272727273" cy="1000" fill="blue" r="20"/>
<text fill="white" font-family="Arial" font-size="15" text-anchor="middle" x="727.2727272727273" y="1005">
84
</text>
<circle cx="818.1818181818181" cy="800" fill="blue" r="20"/>
<text fill="white" font-family="Arial" font-size="15" text-anchor="middle" x="818.1818181818181" y="805">
68
</text>
<circle cx="454.5454545454545" cy="600" fill="blue" r="20"/>
<text fill="white" font-family="Arial" font-size="15" text-anchor="middle" x="454.5454545454545" y="605">
42
</text>
<circle cx="727.2727272727273" cy="900" fill="blue" r="20"/>
<text fill="white" font-family="Arial" font-size="15" text-anchor="middle" x="727.2727272727273" y="905">
76
</text>
<circle cx="545.4545454545455" cy="1000" fill="blue" r="20"/>
<text fill="white" font-family="Arial" font-size="15" text-anchor="middle" x="545.4545454545455" y="1005">
86
</text>
<circle cx="545.4545454545455" cy="500" fill="red" r="20"/>
<text fill="white" font-family="Arial" font-size="15" text-anchor="middle" x="545.4545454545455" y="505">
37
</text>
<circle cx="272.72727272727275" cy="700" fill="red" r="20"/>
<text fill="white" font-family="Arial" font-size="15" text-anchor="middle" x="272.72727272727275" y="705">
57
</text>
<circle cx="909.090909090909" cy="500" fill="blue" r="20"/>
<text fill="white" font-family="Arial" font-size="15" text-anchor="middle" x="909.090909090909" y="505">
36
</text>
<circle cx="636.3636363636364" cy="600" fill="blue" r="20"/>
<text fill="white" font-family="Arial" font-size="15" text-anchor="middle" x="636.3636363636364" y="605">
44
</text>
<circle cx="363.6363636363636" cy="1000" fill="blue" r="20"/>
<text fill="white" font-family="Arial" font-size="15" text-anchor="middle" x="363.6363636363636" y="1005">
82
</text>
<circle cx="363.6363636363636" cy="300" fill="red" r="20"/>
<text fill="white" font-family="Arial" font-size="15" text-anchor="middle" x="363.6363636363636" y="305">
17
</text>
<circle cx="90.9090909090909" cy="600" fill="red" r="20"/>
<text fill="white" font-family="Arial" font-size="15" text-anchor="middle" x="90.9090909090909" y="605">
45
</text>
<text fill="black" font-family="Arial" font-size="20" text-anchor="middle" x="500" y="1180">
Number of nodes: 100, Number of edges: 900, Number of subscriptions: 50
</text>
</svg>